<svg version="1.1" viewBox="0.0 0.0 720.0 960.0" fill="none" stroke="none" stroke-linecap="square" stroke-miterlimit="10" xmlns:xlink="http://www.w3.org/1999/xlink" xmlns="http://www.w3.org/2000/svg"><clipPath id="p.0"><path d="m0 0l720.0 0l0 960.0l-720.0 0l0 -960.0z" clip-rule="nonzero"/></clipPath><g clip-path="url(#p.0)"><path fill="#ffffff" d="m0 0l720.0 0l0 960.0l-720.0 0z" fill-rule="evenodd"/><path fill="#000000" fill-opacity="0.0" d="m11.278215 11.278215l696.8189 0l0 229.35434l-696.8189 0z" fill-rule="evenodd"/><path stroke="#b7b7b7" stroke-width="3.0" stroke-linejoin="round" stroke-linecap="butt" d="m11.278215 11.278215l696.8189 0l0 229.35434l-696.8189 0z" fill-rule="evenodd"/><path fill="#999999" d="m21.82509 25.135714l5.9375 0q2.125 0 3.75 0.8125q1.6406231 0.8125 2.546873 2.296875q0.90625 1.46875 0.90625 3.421875q0 1.9531231 -0.90625 3.437498q-0.90625 1.46875 -2.546873 2.28125q-1.625 0.8125 -3.75 0.8125l-5.9375 0l0 -13.062498zm5.78125 10.578123q1.96875 0 3.125 -1.09375q1.171875 -1.09375 1.171875 -2.953123q0 -1.859375 -1.171875 -2.953125q-1.15625 -1.09375 -3.125 -1.09375l-2.75 0l0 8.093748l2.75 0zm13.472563 -7.703123q2.328125 0 3.578125 1.109375q1.25 1.109375 1.25 3.343748l0 5.734375l-2.71875 0l0 -1.25q-0.828125 1.40625 -3.0625 1.40625q-1.15625 0 -2.015625 -0.390625q-0.84375 -0.40625 -1.296875 -1.09375q-0.4375 -0.6875 -0.4375 -1.5625q0 -1.40625 1.046875 -2.203125q1.0625 -0.796875 3.265625 -0.796875l2.3125 0q0 -0.9531231 -0.578125 -1.4687481q-0.578125 -0.515625 -1.734375 -0.515625q-0.796875 0 -1.578125 0.25q-0.765625 0.25 -1.3125 0.6875l-1.046875 -2.03125q0.828125 -0.578125 1.96875 -0.890625q1.140625 -0.328125 2.359375 -0.328125zm-0.21875 8.374998q0.734375 0 1.3125 -0.34375q0.59375 -0.34375 0.828125 -1.015625l0 -1.03125l-2.0 0q-1.78125 0 -1.78125 1.1875q0 0.546875 0.4375 0.875q0.4375 0.328125 1.203125 0.328125zm14.151535 1.328125q-0.421875 0.3125 -1.046875 0.484375q-0.625 0.15625 -1.3125 0.15625q-1.796875 0 -2.78125 -0.90625q-0.96875 -0.921875 -0.96875 -2.703125l0 -4.124998l-1.546875 0l0 -2.234375l1.546875 0l0 -2.4375l2.90625 0l0 2.4375l2.5 0l0 2.234375l-2.5 0l0 4.093748q0 0.625 0.328125 0.96875q0.328125 0.34375 0.921875 0.34375q0.6875 0 1.171875 -0.359375l0.78125 2.046875zm5.6935883 -9.703123q2.328125 0 3.578125 1.109375q1.25 1.109375 1.25 3.343748l0 5.734375l-2.71875 0l0 -1.25q-0.828125 1.40625 -3.0625 1.40625q-1.15625 0 -2.015625 -0.390625q-0.84375 -0.40625 -1.296875 -1.09375q-0.4375 -0.6875 -0.4375 -1.5625q0 -1.40625 1.046875 -2.203125q1.0625 -0.796875 3.265625 -0.796875l2.3125 0q0 -0.9531231 -0.578125 -1.4687481q-0.578125 -0.515625 -1.734375 -0.515625q-0.796875 0 -1.578125 0.25q-0.765625 0.25 -1.3125 0.6875l-1.046875 -2.03125q0.828125 -0.578125 1.96875 -0.890625q1.140625 -0.328125 2.359375 -0.328125zm-0.21875 8.374998q0.734375 0 1.3125 -0.34375q0.59375 -0.34375 0.828125 -1.015625l0 -1.03125l-2.0 0q-1.78125 0 -1.78125 1.1875q0 0.546875 0.4375 0.875q0.4375 0.328125 1.203125 0.328125zm17.80626 1.96875q-1.59375 0 -2.875 -0.65625q-1.28125 -0.671875 -2.0 -1.84375q-0.71875 -1.1875 -0.71875 -2.671875q0 -1.4999981 0.71875 -2.671873q0.71875 -1.171875 2.0 -1.828125q1.28125 -0.671875 2.875 -0.671875q1.59375 0 2.78125 0.671875q1.1875 0.65625 1.71875 1.890625l-2.25 1.203125q-0.78125 -1.375 -2.265625 -1.375q-1.140625 0 -1.890625 0.75q-0.734375 0.734375 -0.734375 2.031248q0 1.28125 0.734375 2.03125q0.75 0.75 1.890625 0.75q1.5 0 2.265625 -1.390625l2.25 1.234375q-0.53125 1.203125 -1.71875 1.875q-1.1875 0.671875 -2.78125 0.671875zm6.107437 -13.999998l2.90625 0l0 13.843748l-2.90625 0l0 -13.843748zm15.443665 8.859373q0 0.0625 -0.046875 0.78125l-7.59375 0q0.203125 0.9375 0.96875 1.484375q0.765625 0.53125 1.90625 0.53125q0.78125 0 1.375 -0.234375q0.609375 -0.234375 1.140625 -0.734375l1.546875 1.6875q-1.421875 1.625 -4.140625 1.625q-1.703125 0 -3.015625 -0.65625q-1.296875 -0.671875 -2.015625 -1.84375q-0.703125 -1.1875 -0.703125 -2.671875q0 -1.4843731 0.703125 -2.656248q0.703125 -1.1875 1.921875 -1.84375q1.21875 -0.671875 2.734375 -0.671875q1.46875 0 2.65625 0.640625q1.203125 0.625 1.875 1.8125q0.6875 1.1875 0.6875 2.749998zm-5.203125 -2.999998q-0.984375 0 -1.65625 0.5625q-0.671875 0.5625 -0.828125 1.5312481l4.953125 0q-0.15625 -0.9531231 -0.828125 -1.5156231q-0.671875 -0.578125 -1.640625 -0.578125zm10.913971 -2.203125q2.328125 0 3.578125 1.109375q1.25 1.109375 1.25 3.343748l0 5.734375l-2.71875 0l0 -1.25q-0.828125 1.40625 -3.0625 1.40625q-1.15625 0 -2.015625 -0.390625q-0.84375 -0.40625 -1.296875 -1.09375q-0.4375 -0.6875 -0.4375 -1.5625q0 -1.40625 1.046875 -2.203125q1.0625 -0.796875 3.265625 -0.796875l2.3125 0q0 -0.9531231 -0.578125 -1.4687481q-0.578125 -0.515625 -1.734375 -0.515625q-0.796875 0 -1.578125 0.25q-0.765625 0.25 -1.3125 0.6875l-1.046875 -2.03125q0.828125 -0.578125 1.96875 -0.890625q1.140625 -0.328125 2.359375 -0.328125zm-0.21875 8.374998q0.734375 0 1.3125 -0.34375q0.59375 -0.34375 0.828125 -1.015625l0 -1.03125l-2.0 0q-1.78125 0 -1.78125 1.1875q0 0.546875 0.4375 0.875q0.4375 0.328125 1.203125 0.328125zm13.776535 -8.374998q1.875 0 3.015625 1.125q1.15625 1.109375 1.15625 3.312498l0 5.75l-2.921875 0l0 -5.296875q0 -1.2031231 -0.515625 -1.7812481q-0.515625 -0.59375 -1.515625 -0.59375q-1.09375 0 -1.75 0.6875q-0.65625 0.671875 -0.65625 2.015623l0 4.96875l-2.90625 0l0 -10.031248l2.78125 0l0 1.171875q0.578125 -0.640625 1.4375 -0.984375q0.859375 -0.34375 1.875 -0.34375zm6.797714 0.15625l2.90625 0l0 10.031248l-2.90625 0l0 -10.031248zm1.453125 -1.40625q-0.8125 0 -1.3125 -0.46875q-0.5 -0.46875 -0.5 -1.15625q0 -0.6875 0.5 -1.15625q0.5 -0.46875 1.3125 -0.46875q0.796875 0 1.296875 0.453125q0.515625 0.453125 0.515625 1.125q0 0.71875 -0.515625 1.203125q-0.5 0.46875 -1.296875 0.46875zm10.256165 1.25q1.875 0 3.015625 1.125q1.15625 1.109375 1.15625 3.312498l0 5.75l-2.921875 0l0 -5.296875q0 -1.2031231 -0.515625 -1.7812481q-0.515625 -0.59375 -1.515625 -0.59375q-1.09375 0 -1.75 0.6875q-0.65625 0.671875 -0.65625 2.015623l0 4.96875l-2.90625 0l0 -10.031248l2.78125 0l0 1.171875q0.578125 -0.640625 1.4375 -0.984375q0.859375 -0.34375 1.875 -0.34375zm17.269089 0.15625l0 8.359373q0 2.75 -1.4375 4.09375q-1.4375 1.34375 -4.203125 1.34375q-1.453125 0 -2.765625 -0.359375q-1.296875 -0.34375 -2.15625 -1.015625l1.15625 -2.09375q0.625 0.53125 1.59375 0.828125q0.984375 0.3125 1.953125 0.3125q1.5 0 2.21875 -0.6875q0.71875 -0.671875 0.71875 -2.0625l0 -0.421875q-1.125 1.25 -3.171875 1.25q-1.375 0 -2.53125 -0.609375q-1.140625 -0.609375 -1.8125 -1.703125q-0.671875 -1.109375 -0.671875 -2.53125q0 -1.4374981 0.671875 -2.531248q0.671875 -1.109375 1.8125 -1.71875q1.15625 -0.609375 2.53125 -0.609375q2.1875 0 3.328125 1.4375l0 -1.28125l2.765625 0zm-5.515625 7.156248q1.15625 0 1.890625 -0.671875q0.75 -0.6875 0.75 -1.78125q0 -1.1093731 -0.75 -1.7812481q-0.734375 -0.6875 -1.890625 -0.6875q-1.15625 0 -1.90625 0.6875q-0.734375 0.671875 -0.734375 1.7812481q0 1.09375 0.734375 1.78125q0.75 0.671875 1.90625 0.671875z" fill-rule="nonzero"/><path fill="#000000" fill-opacity="0.0" d="m11.278215 269.45108l696.8189 0l0 229.35434l-696.8189 0z" fill-rule="evenodd"/><path stroke="#b7b7b7" stroke-width="3.0" stroke-linejoin="round" stroke-linecap="butt" d="m11.278215 269.45108l696.8189 0l0 229.35434l-696.8189 0z" fill-rule="evenodd"/><path fill="#999999" d="m24.85634 285.73047l0 3.453125l6.03125 0l0 2.4375l-6.03125 0l0 4.75l-3.03125 0l0 -13.0625l9.875 0l0 2.421875l-6.84375 0zm18.253752 5.65625q0 0.0625 -0.046875 0.78125l-7.59375 0q0.203125 0.9375 0.96875 1.484375q0.765625 0.53125 1.90625 0.53125q0.78125 0 1.375 -0.234375q0.609375 -0.234375 1.140625 -0.734375l1.546875 1.6875q-1.421875 1.625 -4.140625 1.625q-1.703125 0 -3.015625 -0.65625q-1.296875 -0.671875 -2.015625 -1.84375q-0.703125 -1.1875 -0.703125 -2.671875q0 -1.484375 0.703125 -2.65625q0.703125 -1.1875 1.921875 -1.84375q1.21875 -0.671875 2.734375 -0.671875q1.46875 0 2.65625 0.640625q1.203125 0.625 1.875 1.8125q0.6875 1.1875 0.6875 2.75zm-5.203125 -3.0q-0.984375 0 -1.65625 0.5625q-0.671875 0.5625 -0.828125 1.53125l4.953125 0q-0.15625 -0.953125 -0.828125 -1.515625q-0.671875 -0.578125 -1.640625 -0.578125zm10.913971 -2.203125q2.328125 0 3.578125 1.109375q1.25 1.109375 1.25 3.34375l0 5.734375l-2.71875 0l0 -1.25q-0.828125 1.40625 -3.0625 1.40625q-1.15625 0 -2.015625 -0.390625q-0.84375 -0.40625 -1.296875 -1.09375q-0.4375 -0.6875 -0.4375 -1.5625q0 -1.40625 1.046875 -2.203125q1.0625 -0.796875 3.265625 -0.796875l2.3125 0q0 -0.953125 -0.578125 -1.46875q-0.578125 -0.515625 -1.734375 -0.515625q-0.796875 0 -1.578125 0.25q-0.765625 0.25 -1.3125 0.6875l-1.046875 -2.03125q0.828125 -0.578125 1.96875 -0.890625q1.140625 -0.328125 2.359375 -0.328125zm-0.21875 8.375q0.734375 0 1.3125 -0.34375q0.59375 -0.34375 0.828125 -1.015625l0 -1.03125l-2.0 0q-1.78125 0 -1.78125 1.1875q0 0.546875 0.4375 0.875q0.4375 0.328125 1.203125 0.328125zm14.151535 1.328125q-0.421875 0.3125 -1.046875 0.484375q-0.625 0.15625 -1.3125 0.15625q-1.796875 0 -2.78125 -0.90625q-0.96875 -0.921875 -0.96875 -2.703125l0 -4.125l-1.546875 0l0 -2.234375l1.546875 0l0 -2.4375l2.90625 0l0 2.4375l2.5 0l0 2.234375l-2.5 0l0 4.09375q0 0.625 0.328125 0.96875q0.328125 0.34375 0.921875 0.34375q0.6875 0 1.171875 -0.359375l0.78125 2.046875zm11.756088 -9.546875l0 10.03125l-2.765625 0l0 -1.1875q-0.578125 0.640625 -1.375 1.0q-0.796875 0.34375 -1.734375 0.34375q-1.984375 0 -3.140625 -1.140625q-1.15625 -1.140625 -1.15625 -3.375l0 -5.671875l2.921875 0l0 5.234375q0 2.421875 2.03125 2.421875q1.046875 0 1.671875 -0.671875q0.640625 -0.6875 0.640625 -2.03125l0 -4.953125l2.90625 0zm5.4887238 1.3125q0.515625 -0.71875 1.40625 -1.09375q0.890625 -0.375 2.046875 -0.375l0 2.6875q-0.484375 -0.03125 -0.65625 -0.03125q-1.25 0 -1.96875 0.703125q-0.703125 0.6875 -0.703125 2.09375l0 4.734375l-2.90625 0l0 -10.03125l2.78125 0l0 1.3125zm14.9197235 3.734375q0 0.0625 -0.046875 0.78125l-7.59375 0q0.203125 0.9375 0.96875 1.484375q0.765625 0.53125 1.90625 0.53125q0.78125 0 1.375 -0.234375q0.609375 -0.234375 1.140625 -0.734375l1.546875 1.6875q-1.421875 1.625 -4.140625 1.625q-1.703125 0 -3.015625 -0.65625q-1.296875 -0.671875 -2.015625 -1.84375q-0.703125 -1.1875 -0.703125 -2.671875q0 -1.484375 0.703125 -2.65625q0.703125 -1.1875 1.921875 -1.84375q1.21875 -0.671875 2.734375 -0.671875q1.46875 0 2.65625 0.640625q1.203125 0.625 1.875 1.8125q0.6875 1.1875 0.6875 2.75zm-5.203125 -3.0q-0.984375 0 -1.65625 0.5625q-0.671875 0.5625 -0.828125 1.53125l4.953125 0q-0.15625 -0.953125 -0.828125 -1.515625q-0.671875 -0.578125 -1.640625 -0.578125zm22.254944 3.0q0 0.0625 -0.046875 0.78125l-7.59375 0q0.203125 0.9375 0.96875 1.484375q0.765625 0.53125 1.90625 0.53125q0.78125 0 1.375 -0.234375q0.609375 -0.234375 1.140625 -0.734375l1.546875 1.6875q-1.421875 1.625 -4.140625 1.625q-1.703125 0 -3.015625 -0.65625q-1.296875 -0.671875 -2.015625 -1.84375q-0.703125 -1.1875 -0.703125 -2.671875q0 -1.484375 0.703125 -2.65625q0.703125 -1.1875 1.921875 -1.84375q1.21875 -0.671875 2.734375 -0.671875q1.46875 0 2.65625 0.640625q1.203125 0.625 1.875 1.8125q0.6875 1.1875 0.6875 2.75zm-5.203125 -3.0q-0.984375 0 -1.65625 0.5625q-0.671875 0.5625 -0.828125 1.53125l4.953125 0q-0.15625 -0.953125 -0.828125 -1.515625q-0.671875 -0.578125 -1.640625 -0.578125zm13.242096 7.984375l-2.203125 -3.078125l-2.265625 3.078125l-3.171875 0l3.859375 -5.0625l-3.734375 -4.96875l3.265625 0l2.125 2.921875l2.1875 -2.921875l3.09375 0l-3.734375 4.90625l3.890625 5.125l-3.3125 0zm11.194214 -0.484375q-0.421875 0.3125 -1.046875 0.484375q-0.625 0.15625 -1.3125 0.15625q-1.796875 0 -2.78125 -0.90625q-0.96875 -0.921875 -0.96875 -2.703125l0 -4.125l-1.546875 0l0 -2.234375l1.546875 0l0 -2.4375l2.90625 0l0 2.4375l2.5 0l0 2.234375l-2.5 0l0 4.09375q0 0.625 0.328125 0.96875q0.328125 0.34375 0.921875 0.34375q0.6875 0 1.171875 -0.359375l0.78125 2.046875zm4.4279633 -8.234375q0.515625 -0.71875 1.40625 -1.09375q0.890625 -0.375 2.046875 -0.375l0 2.6875q-0.484375 -0.03125 -0.65625 -0.03125q-1.25 0 -1.96875 0.703125q-0.703125 0.6875 -0.703125 2.09375l0 4.734375l-2.90625 0l0 -10.03125l2.78125 0l0 1.3125zm9.175812 -1.46875q2.328125 0 3.578125 1.109375q1.25 1.109375 1.25 3.34375l0 5.734375l-2.71875 0l0 -1.25q-0.828125 1.40625 -3.0625 1.40625q-1.15625 0 -2.015625 -0.390625q-0.84375 -0.40625 -1.296875 -1.09375q-0.4375 -0.6875 -0.4375 -1.5625q0 -1.40625 1.046875 -2.203125q1.0625 -0.796875 3.265625 -0.796875l2.3125 0q0 -0.953125 -0.578125 -1.46875q-0.578125 -0.515625 -1.734375 -0.515625q-0.796875 0 -1.578125 0.25q-0.765625 0.25 -1.3125 0.6875l-1.046875 -2.03125q0.828125 -0.578125 1.96875 -0.890625q1.140625 -0.328125 2.359375 -0.328125zm-0.21875 8.375q0.734375 0 1.3125 -0.34375q0.59375 -0.34375 0.828125 -1.015625l0 -1.03125l-2.0 0q-1.78125 0 -1.78125 1.1875q0 0.546875 0.4375 0.875q0.4375 0.328125 1.203125 0.328125zm12.638535 1.96875q-1.59375 0 -2.875 -0.65625q-1.28125 -0.671875 -2.0 -1.84375q-0.71875 -1.1875 -0.71875 -2.671875q0 -1.5 0.71875 -2.671875q0.71875 -1.171875 2.0 -1.828125q1.28125 -0.671875 2.875 -0.671875q1.59375 0 2.78125 0.671875q1.1875 0.65625 1.71875 1.890625l-2.25 1.203125q-0.78125 -1.375 -2.265625 -1.375q-1.140625 0 -1.890625 0.75q-0.734375 0.734375 -0.734375 2.03125q0 1.28125 0.734375 2.03125q0.75 0.75 1.890625 0.75q1.5 0 2.265625 -1.390625l2.25 1.234375q-0.53125 1.203125 -1.71875 1.875q-1.1875 0.671875 -2.78125 0.671875zm12.800186 -0.640625q-0.421875 0.3125 -1.046875 0.484375q-0.625 0.15625 -1.3125 0.15625q-1.796875 0 -2.78125 -0.90625q-0.96875 -0.921875 -0.96875 -2.703125l0 -4.125l-1.546875 0l0 -2.234375l1.546875 0l0 -2.4375l2.90625 0l0 2.4375l2.5 0l0 2.234375l-2.5 0l0 4.09375q0 0.625 0.328125 0.96875q0.328125 0.34375 0.921875 0.34375q0.6875 0 1.171875 -0.359375l0.78125 2.046875zm1.6467133 -9.546875l2.90625 0l0 10.03125l-2.90625 0l0 -10.03125zm1.453125 -1.40625q-0.8125 0 -1.3125 -0.46875q-0.5 -0.46875 -0.5 -1.15625q0 -0.6875 0.5 -1.15625q0.5 -0.46875 1.3125 -0.46875q0.796875 0 1.296875 0.453125q0.515625 0.453125 0.515625 1.125q0 0.71875 -0.515625 1.203125q-0.5 0.46875 -1.296875 0.46875zm8.943665 11.59375q-1.59375 0 -2.859375 -0.65625q-1.25 -0.671875 -1.96875 -1.84375q-0.703125 -1.1875 -0.703125 -2.671875q0 -1.5 0.703125 -2.671875q0.71875 -1.171875 1.96875 -1.828125q1.265625 -0.671875 2.859375 -0.671875q1.578125 0 2.828125 0.671875q1.25 0.65625 1.953125 1.828125q0.71875 1.171875 0.71875 2.671875q0 1.484375 -0.71875 2.671875q-0.703125 1.171875 -1.953125 1.84375q-1.25 0.65625 -2.828125 0.65625zm0 -2.390625q1.109375 0 1.828125 -0.75q0.71875 -0.765625 0.71875 -2.03125q0 -1.265625 -0.71875 -2.015625q-0.71875 -0.765625 -1.828125 -0.765625q-1.125 0 -1.859375 0.765625q-0.71875 0.75 -0.71875 2.015625q0 1.265625 0.71875 2.03125q0.734375 0.75 1.859375 0.75zm13.532349 -7.953125q1.875 0 3.015625 1.125q1.15625 1.109375 1.15625 3.3125l0 5.75l-2.921875 0l0 -5.296875q0 -1.203125 -0.515625 -1.78125q-0.515625 -0.59375 -1.515625 -0.59375q-1.09375 0 -1.75 0.6875q-0.65625 0.671875 -0.65625 2.015625l0 4.96875l-2.90625 0l0 -10.03125l2.78125 0l0 1.171875q0.578125 -0.640625 1.4375 -0.984375q0.859375 -0.34375 1.875 -0.34375z" fill-rule="nonzero"/><path fill="#000000" fill-opacity="0.0" d="m11.278215 527.62396l696.8189 0l0 229.35431l-696.8189 0z" fill-rule="evenodd"/><path stroke="#b7b7b7" stroke-width="3.0" stroke-linejoin="round" stroke-linecap="butt" d="m11.278215 527.62396l696.8189 0l0 229.35431l-696.8189 0z" fill-rule="evenodd"/><path fill="#999999" d="m27.48134 541.48145q1.734375 0 3.015625 0.578125q1.28125 0.578125 1.9687481 1.640625q0.6875 1.0625 0.6875 2.515625q0 1.4375 -0.6875 2.515625q-0.6874981 1.078125 -1.9687481 1.65625q-1.28125 0.5625 -3.015625 0.5625l-2.625 0l0 3.59375l-3.03125 0l0 -13.0625l5.65625 0zm-0.171875 7.0q1.359375 0 2.0625 -0.578125q0.71875 -0.59375 0.71875 -1.6875q0 -1.09375 -0.71875 -1.671875q-0.703125 -0.59375 -2.0625 -0.59375l-2.453125 0l0 4.53125l2.453125 0zm10.563459 -2.65625q0.515625 -0.71875 1.40625 -1.09375q0.890625 -0.375 2.046875 -0.375l0 2.6875q-0.484375 -0.03125 -0.65625 -0.03125q-1.25 0 -1.96875 0.703125q-0.703125 0.6875 -0.703125 2.09375l0 4.734375l-2.90625 0l0 -10.03125l2.78125 0l0 1.3125zm14.9197235 3.734375q0 0.0625 -0.046875 0.78125l-7.59375 0q0.203125 0.9375 0.96875 1.484375q0.765625 0.53125 1.90625 0.53125q0.78125 0 1.375 -0.234375q0.609375 -0.234375 1.140625 -0.734375l1.546875 1.6875q-1.421875 1.625 -4.140625 1.625q-1.703125 0 -3.015625 -0.65625q-1.296875 -0.671875 -2.015625 -1.84375q-0.703125 -1.1875 -0.703125 -2.671875q0 -1.484375 0.703125 -2.65625q0.703125 -1.1875 1.921875 -1.84375q1.21875 -0.671875 2.734375 -0.671875q1.46875 0 2.65625 0.640625q1.203125 0.625 1.875 1.8125q0.6875 1.1875 0.6875 2.75zm-5.203125 -3.0q-0.984375 0 -1.65625 0.5625q-0.671875 0.5625 -0.828125 1.53125l4.953125 0q-0.15625 -0.953125 -0.828125 -1.515625q-0.671875 -0.578125 -1.640625 -0.578125zm17.365845 -5.859375l0 13.84375l-2.78125 0l0 -1.15625q-1.078125 1.3125 -3.125 1.3125q-1.421875 0 -2.578125 -0.640625q-1.140625 -0.640625 -1.796875 -1.8125q-0.640625 -1.171875 -0.640625 -2.71875q0 -1.546875 0.640625 -2.71875q0.65625 -1.1875 1.796875 -1.8125q1.15625 -0.640625 2.578125 -0.640625q1.921875 0 3.0 1.21875l0 -4.875l2.90625 0zm-5.40625 11.609375q1.09375 0 1.828125 -0.75q0.734375 -0.765625 0.734375 -2.03125q0 -1.265625 -0.734375 -2.015625q-0.734375 -0.765625 -1.828125 -0.765625q-1.125 0 -1.859375 0.765625q-0.71875 0.75 -0.71875 2.015625q0 1.265625 0.71875 2.03125q0.734375 0.75 1.859375 0.75zm8.097626 -7.796875l2.90625 0l0 10.03125l-2.90625 0l0 -10.03125zm1.453125 -1.40625q-0.8125 0 -1.3125 -0.46875q-0.5 -0.46875 -0.5 -1.15625q0 -0.6875 0.5 -1.15625q0.5 -0.46875 1.3125 -0.46875q0.796875 0 1.296875 0.453125q0.515625 0.453125 0.515625 1.125q0 0.71875 -0.515625 1.203125q-0.5 0.46875 -1.296875 0.46875zm9.006165 11.59375q-1.59375 0 -2.875 -0.65625q-1.28125 -0.671875 -2.0 -1.84375q-0.71875 -1.1875 -0.71875 -2.671875q0 -1.5 0.71875 -2.671875q0.71875 -1.171875 2.0 -1.828125q1.28125 -0.671875 2.875 -0.671875q1.59375 0 2.78125 0.671875q1.1875 0.65625 1.71875 1.890625l-2.25 1.203125q-0.78125 -1.375 -2.265625 -1.375q-1.140625 0 -1.890625 0.75q-0.734375 0.734375 -0.734375 2.03125q0 1.28125 0.734375 2.03125q0.75 0.75 1.890625 0.75q1.5 0 2.265625 -1.390625l2.25 1.234375q-0.53125 1.203125 -1.71875 1.875q-1.1875 0.671875 -2.78125 0.671875zm12.800186 -0.640625q-0.421875 0.3125 -1.046875 0.484375q-0.625 0.15625 -1.3125 0.15625q-1.796875 0 -2.78125 -0.90625q-0.96875 -0.921875 -0.96875 -2.703125l0 -4.125l-1.546875 0l0 -2.234375l1.546875 0l0 -2.4375l2.90625 0l0 2.4375l2.5 0l0 2.234375l-2.5 0l0 4.09375q0 0.625 0.328125 0.96875q0.328125 0.34375 0.921875 0.34375q0.6875 0 1.171875 -0.359375l0.78125 2.046875zm1.6467133 -9.546875l2.90625 0l0 10.03125l-2.90625 0l0 -10.03125zm1.453125 -1.40625q-0.8125 0 -1.3125 -0.46875q-0.5 -0.46875 -0.5 -1.15625q0 -0.6875 0.5 -1.15625q0.5 -0.46875 1.3125 -0.46875q0.796875 0 1.296875 0.453125q0.515625 0.453125 0.515625 1.125q0 0.71875 -0.515625 1.203125q-0.5 0.46875 -1.296875 0.46875zm8.943665 11.59375q-1.59375 0 -2.859375 -0.65625q-1.25 -0.671875 -1.96875 -1.84375q-0.703125 -1.1875 -0.703125 -2.671875q0 -1.5 0.703125 -2.671875q0.71875 -1.171875 1.96875 -1.828125q1.265625 -0.671875 2.859375 -0.671875q1.578125 0 2.828125 0.671875q1.25 0.65625 1.953125 1.828125q0.71875 1.171875 0.71875 2.671875q0 1.484375 -0.71875 2.671875q-0.703125 1.171875 -1.953125 1.84375q-1.25 0.65625 -2.828125 0.65625zm0 -2.390625q1.109375 0 1.828125 -0.75q0.71875 -0.765625 0.71875 -2.03125q0 -1.265625 -0.71875 -2.015625q-0.71875 -0.765625 -1.828125 -0.765625q-1.125 0 -1.859375 0.765625q-0.71875 0.75 -0.71875 2.015625q0 1.265625 0.71875 2.03125q0.734375 0.75 1.859375 0.75zm13.532349 -7.953125q1.875 0 3.015625 1.125q1.15625 1.109375 1.15625 3.3125l0 5.75l-2.921875 0l0 -5.296875q0 -1.203125 -0.515625 -1.78125q-0.515625 -0.59375 -1.515625 -0.59375q-1.09375 0 -1.75 0.6875q-0.65625 0.671875 -0.65625 2.015625l0 4.96875l-2.90625 0l0 -10.03125l2.78125 0l0 1.171875q0.578125 -0.640625 1.4375 -0.984375q0.859375 -0.34375 1.875 -0.34375z" fill-rule="nonzero"/><path fill="#eeeeee" d="m218.06824 47.475l0 0c0 3.1136665 10.096512 5.6377945 22.551178 5.6377945c12.454681 0 22.551178 -2.524128 22.551178 -5.6377945l0 48.72441c0 3.1136627 -10.096497 5.6377945 -22.551178 5.6377945c-12.454666 0 -22.551178 -2.5241318 -22.551178 -5.6377945z" fill-rule="evenodd"/><path fill="#f4f4f4" d="m218.06824 47.475l0 0c0 -3.1136703 10.096512 -5.6377945 22.551178 -5.6377945c12.454681 0 22.551178 2.5241241 22.551178 5.6377945l0 0c0 3.1136665 -10.096497 5.6377945 -22.551178 5.6377945c-12.454666 0 -22.551178 -2.524128 -22.551178 -5.6377945z" fill-rule="evenodd"/><path fill="#000000" fill-opacity="0.0" d="m263.1706 47.475l0 0c0 3.1136665 -10.096497 5.6377945 -22.551178 5.6377945c-12.454666 0 -22.551178 -2.524128 -22.551178 -5.6377945l0 0c0 -3.1136703 10.096512 -5.6377945 22.551178 -5.6377945c12.454681 0 22.551178 2.5241241 22.551178 5.6377945l0 48.72441c0 3.1136627 -10.096497 5.6377945 -22.551178 5.6377945c-12.454666 0 -22.551178 -2.5241318 -22.551178 -5.6377945l0 -48.72441" fill-rule="evenodd"/><path stroke="#000000" stroke-width="1.0" stroke-linejoin="round" stroke-linecap="butt" d="m263.1706 47.475l0 0c0 3.1136665 -10.096497 5.6377945 -22.551178 5.6377945c-12.454666 0 -22.551178 -2.524128 -22.551178 -5.6377945l0 0c0 -3.1136703 10.096512 -5.6377945 22.551178 -5.6377945c12.454681 0 22.551178 2.5241241 22.551178 5.6377945l0 48.72441c0 3.1136627 -10.096497 5.6377945 -22.551178 5.6377945c-12.454666 0 -22.551178 -2.5241318 -22.551178 -5.6377945l0 -48.72441" fill-rule="evenodd"/><path fill="#000000" fill-opacity="0.0" d="m179.92651 100.74796l121.38583 0l0 37.574806l-121.38583 0z" fill-rule="evenodd"/><path fill="#434343" d="m198.24928 114.60546l5.3125 0q2.078125 0 3.65625 0.828125q1.59375 0.828125 2.46875 2.3125q0.875 1.484375 0.875 3.390625q0 1.90625 -0.875 3.390625q-0.875 1.484375 -2.46875 2.3125q-1.578125 0.828125 -3.65625 0.828125l-5.3125 0l0 -13.0625zm5.25 11.875q1.703125 0 2.984375 -0.6875q1.296875 -0.6875 2.0 -1.890625q0.71875 -1.203125 0.71875 -2.765625q0 -1.5625 -0.71875 -2.765625q-0.703125 -1.203125 -2.0 -1.875q-1.28125 -0.6875 -2.984375 -0.6875l-3.875 0l0 10.671875l3.875 0zm13.316315 -8.703125q1.921875 0 2.9375 0.96875q1.03125 0.953125 1.03125 2.84375l0 6.078125l-1.265625 0l0 -1.53125q-0.453125 0.765625 -1.328125 1.203125q-0.859375 0.421875 -2.046875 0.421875q-1.640625 0 -2.609375 -0.78125q-0.96875 -0.78125 -0.96875 -2.078125q0 -1.25 0.890625 -2.015625q0.90625 -0.765625 2.890625 -0.765625l3.109375 0l0 -0.59375q0 -1.265625 -0.703125 -1.921875q-0.703125 -0.671875 -2.0625 -0.671875q-0.9375 0 -1.796875 0.3125q-0.859375 0.3125 -1.46875 0.84375l-0.609375 -0.984375q0.75 -0.640625 1.796875 -0.984375q1.046875 -0.34375 2.203125 -0.34375zm-0.46875 8.9375q1.125 0 1.921875 -0.515625q0.796875 -0.515625 1.1875 -1.484375l0 -1.59375l-3.078125 0q-2.515625 0 -2.515625 1.75q0 0.859375 0.65625 1.359375q0.65625 0.484375 1.828125 0.484375zm13.210312 0.359375q-0.375 0.328125 -0.921875 0.515625q-0.546875 0.171875 -1.15625 0.171875q-1.375 0 -2.125 -0.75q-0.734375 -0.75 -0.734375 -2.109375l0 -5.921875l-1.765625 0l0 -1.125l1.765625 0l0 -2.140625l1.3125 0l0 2.140625l2.984375 0l0 1.125l-2.984375 0l0 5.859375q0 0.875 0.4375 1.328125q0.4375 0.453125 1.265625 0.453125q0.40625 0 0.78125 -0.125q0.390625 -0.140625 0.671875 -0.375l0.46875 0.953125zm5.8400574 -9.296875q1.921875 0 2.9375 0.96875q1.03125 0.953125 1.03125 2.84375l0 6.078125l-1.265625 0l0 -1.53125q-0.453125 0.765625 -1.328125 1.203125q-0.859375 0.421875 -2.046875 0.421875q-1.640625 0 -2.609375 -0.78125q-0.96875 -0.78125 -0.96875 -2.078125q0 -1.25 0.890625 -2.015625q0.90625 -0.765625 2.890625 -0.765625l3.109375 0l0 -0.59375q0 -1.265625 -0.703125 -1.921875q-0.703125 -0.671875 -2.0625 -0.671875q-0.9375 0 -1.796875 0.3125q-0.859375 0.3125 -1.46875 0.84375l-0.609375 -0.984375q0.75 -0.640625 1.796875 -0.984375q1.046875 -0.34375 2.203125 -0.34375zm-0.46875 8.9375q1.125 0 1.921875 -0.515625q0.796875 -0.515625 1.1875 -1.484375l0 -1.59375l-3.078125 0q-2.515625 0 -2.515625 1.75q0 0.859375 0.65625 1.359375q0.65625 0.484375 1.828125 0.484375zm13.100937 -8.9375q1.375 0 2.484375 0.625q1.125 0.625 1.765625 1.765625q0.640625 1.140625 0.640625 2.59375q0 1.453125 -0.640625 2.59375q-0.640625 1.140625 -1.765625 1.78125q-1.109375 0.625 -2.484375 0.625q-1.234375 0 -2.21875 -0.515625q-0.96875 -0.53125 -1.578125 -1.515625l0 1.9375l-1.265625 0l0 -13.84375l1.328125 0l0 5.890625q0.609375 -0.953125 1.5625 -1.4375q0.96875 -0.5 2.171875 -0.5zm-0.09375 8.8125q1.015625 0 1.859375 -0.46875q0.84375 -0.484375 1.3125 -1.359375q0.484375 -0.875 0.484375 -2.0q0 -1.125 -0.484375 -2.0q-0.46875 -0.875 -1.3125 -1.34375q-0.84375 -0.484375 -1.859375 -0.484375q-1.046875 0 -1.875 0.484375q-0.828125 0.46875 -1.3125 1.34375q-0.46875 0.875 -0.46875 2.0q0 1.125 0.46875 2.0q0.484375 0.875 1.3125 1.359375q0.828125 0.46875 1.875 0.46875zm11.061691 -8.8125q1.921875 0 2.9375 0.96875q1.03125 0.953125 1.03125 2.84375l0 6.078125l-1.265625 0l0 -1.53125q-0.453125 0.765625 -1.328125 1.203125q-0.859375 0.421875 -2.046875 0.421875q-1.640625 0 -2.609375 -0.78125q-0.96875 -0.78125 -0.96875 -2.078125q0 -1.25 0.890625 -2.015625q0.90625 -0.765625 2.890625 -0.765625l3.109375 0l0 -0.59375q0 -1.265625 -0.703125 -1.921875q-0.703125 -0.671875 -2.0625 -0.671875q-0.9375 0 -1.796875 0.3125q-0.859375 0.3125 -1.46875 0.84375l-0.609375 -0.984375q0.75 -0.640625 1.796875 -0.984375q1.046875 -0.34375 2.203125 -0.34375zm-0.46875 8.9375q1.125 0 1.921875 -0.515625q0.796875 -0.515625 1.1875 -1.484375l0 -1.59375l-3.078125 0q-2.515625 0 -2.515625 1.75q0 0.859375 0.65625 1.359375q0.65625 0.484375 1.828125 0.484375zm10.679047 1.046875q-1.203125 0 -2.296875 -0.34375q-1.09375 -0.34375 -1.703125 -0.875l0.59375 -1.046875q0.625 0.5 1.546875 0.8125q0.9375 0.296875 1.953125 0.296875q1.328125 0 1.96875 -0.421875q0.65625 -0.421875 0.65625 -1.1875q0 -0.53125 -0.359375 -0.84375q-0.34375 -0.3125 -0.890625 -0.46875q-0.546875 -0.15625 -1.4375 -0.3125q-1.1875 -0.21875 -1.921875 -0.453125q-0.734375 -0.234375 -1.25 -0.78125q-0.5 -0.5625 -0.5 -1.5625q0 -1.234375 1.015625 -2.015625q1.03125 -0.78125 2.859375 -0.78125q0.953125 0 1.90625 0.25q0.953125 0.25 1.5625 0.671875l-0.578125 1.0625q-1.203125 -0.84375 -2.890625 -0.84375q-1.265625 0 -1.90625 0.453125q-0.640625 0.4375 -0.640625 1.171875q0 0.5625 0.359375 0.90625q0.359375 0.328125 0.890625 0.484375q0.546875 0.15625 1.5 0.328125q1.171875 0.21875 1.875 0.453125q0.71875 0.21875 1.21875 0.765625q0.515625 0.53125 0.515625 1.484375q0 1.28125 -1.078125 2.046875q-1.078125 0.75 -2.96875 0.75zm15.029175 -4.59375l-8.203125 0q0.109375 1.53125 1.171875 2.484375q1.0625 0.9375 2.6875 0.9375q0.90625 0 1.671875 -0.328125q0.765625 -0.328125 1.328125 -0.96875l0.75 0.859375q-0.65625 0.78125 -1.640625 1.203125q-0.96875 0.40625 -2.15625 0.40625q-1.5 0 -2.671875 -0.640625q-1.15625 -0.640625 -1.8125 -1.78125q-0.65625 -1.140625 -0.65625 -2.578125q0 -1.4375 0.625 -2.578125q0.625 -1.140625 1.71875 -1.765625q1.09375 -0.640625 2.453125 -0.640625q1.359375 0 2.4375 0.640625q1.078125 0.625 1.6875 1.765625q0.625 1.125 0.625 2.578125l-0.015625 0.40625zm-4.734375 -4.25q-1.421875 0 -2.390625 0.90625q-0.953125 0.90625 -1.078125 2.359375l6.953125 0q-0.125 -1.453125 -1.09375 -2.359375q-0.953125 -0.90625 -2.390625 -0.90625z" fill-rule="nonzero"/><path fill="#434343" d="m244.24365 146.1836l-7.265625 0l-1.578125 3.484375l-1.4375 0l5.96875 -13.0625l1.375 0l5.96875 13.0625l-1.453125 0l-1.578125 -3.484375zm-0.5 -1.125l-3.140625 -7.015625l-3.125 7.015625l6.265625 0z" fill-rule="nonzero"/><path fill="#eeeeee" d="m472.18634 47.475l0 0c0 3.1136665 10.096527 5.6377945 22.551178 5.6377945c12.454681 0 22.551178 -2.524128 22.551178 -5.6377945l0 48.72441c0 3.1136627 -10.096497 5.6377945 -22.551178 5.6377945c-12.454651 0 -22.551178 -2.5241318 -22.551178 -5.6377945z" fill-rule="evenodd"/><path fill="#f4f4f4" d="m472.18634 47.475l0 0c0 -3.1136703 10.096527 -5.6377945 22.551178 -5.6377945c12.454681 0 22.551178 2.5241241 22.551178 5.6377945l0 0c0 3.1136665 -10.096497 5.6377945 -22.551178 5.6377945c-12.454651 0 -22.551178 -2.524128 -22.551178 -5.6377945z" fill-rule="evenodd"/><path fill="#000000" fill-opacity="0.0" d="m517.2887 47.475l0 0c0 3.1136665 -10.096497 5.6377945 -22.551178 5.6377945c-12.454651 0 -22.551178 -2.524128 -22.551178 -5.6377945l0 0c0 -3.1136703 10.096527 -5.6377945 22.551178 -5.6377945c12.454681 0 22.551178 2.5241241 22.551178 5.6377945l0 48.72441c0 3.1136627 -10.096497 5.6377945 -22.551178 5.6377945c-12.454651 0 -22.551178 -2.5241318 -22.551178 -5.6377945l0 -48.72441" fill-rule="evenodd"/><path stroke="#000000" stroke-width="1.0" stroke-linejoin="round" stroke-linecap="butt" d="m517.2887 47.475l0 0c0 3.1136665 -10.096497 5.6377945 -22.551178 5.6377945c-12.454651 0 -22.551178 -2.524128 -22.551178 -5.6377945l0 0c0 -3.1136703 10.096527 -5.6377945 22.551178 -5.6377945c12.454681 0 22.551178 2.5241241 22.551178 5.6377945l0 48.72441c0 3.1136627 -10.096497 5.6377945 -22.551178 5.6377945c-12.454651 0 -22.551178 -2.5241318 -22.551178 -5.6377945l0 -48.72441" fill-rule="evenodd"/><path fill="#000000" fill-opacity="0.0" d="m434.04462 100.74796l121.3858 0l0 37.574806l-121.3858 0z" fill-rule="evenodd"/><path fill="#434343" d="m452.3674 114.60546l5.3125 0q2.078125 0 3.65625 0.828125q1.59375 0.828125 2.46875 2.3125q0.875 1.484375 0.875 3.390625q0 1.90625 -0.875 3.390625q-0.875 1.484375 -2.46875 2.3125q-1.578125 0.828125 -3.65625 0.828125l-5.3125 0l0 -13.0625zm5.25 11.875q1.703125 0 2.984375 -0.6875q1.296875 -0.6875 2.0 -1.890625q0.71875 -1.203125 0.71875 -2.765625q0 -1.5625 -0.71875 -2.765625q-0.703125 -1.203125 -2.0 -1.875q-1.28125 -0.6875 -2.984375 -0.6875l-3.875 0l0 10.671875l3.875 0zm13.316315 -8.703125q1.921875 0 2.9375 0.96875q1.03125 0.953125 1.03125 2.84375l0 6.078125l-1.265625 0l0 -1.53125q-0.453125 0.765625 -1.328125 1.203125q-0.859375 0.421875 -2.046875 0.421875q-1.640625 0 -2.609375 -0.78125q-0.96875 -0.78125 -0.96875 -2.078125q0 -1.25 0.890625 -2.015625q0.90625 -0.765625 2.890625 -0.765625l3.109375 0l0 -0.59375q0 -1.265625 -0.703125 -1.921875q-0.703125 -0.671875 -2.0625 -0.671875q-0.9375 0 -1.796875 0.3125q-0.859375 0.3125 -1.46875 0.84375l-0.609375 -0.984375q0.75 -0.640625 1.796875 -0.984375q1.046875 -0.34375 2.203125 -0.34375zm-0.46875 8.9375q1.125 0 1.921875 -0.515625q0.796875 -0.515625 1.1875 -1.484375l0 -1.59375l-3.078125 0q-2.515625 0 -2.515625 1.75q0 0.859375 0.65625 1.359375q0.65625 0.484375 1.828125 0.484375zm13.210297 0.359375q-0.375 0.328125 -0.921875 0.515625q-0.546875 0.171875 -1.15625 0.171875q-1.375 0 -2.125 -0.75q-0.734375 -0.75 -0.734375 -2.109375l0 -5.921875l-1.765625 0l0 -1.125l1.765625 0l0 -2.140625l1.3125 0l0 2.140625l2.984375 0l0 1.125l-2.984375 0l0 5.859375q0 0.875 0.4375 1.328125q0.4375 0.453125 1.265625 0.453125q0.40625 0 0.78125 -0.125q0.390625 -0.140625 0.671875 -0.375l0.46875 0.953125zm5.8400574 -9.296875q1.921875 0 2.9375 0.96875q1.03125 0.953125 1.03125 2.84375l0 6.078125l-1.265625 0l0 -1.53125q-0.453125 0.765625 -1.328125 1.203125q-0.859375 0.421875 -2.046875 0.421875q-1.640625 0 -2.609375 -0.78125q-0.96875 -0.78125 -0.96875 -2.078125q0 -1.25 0.890625 -2.015625q0.90625 -0.765625 2.890625 -0.765625l3.109375 0l0 -0.59375q0 -1.265625 -0.703125 -1.921875q-0.703125 -0.671875 -2.0625 -0.671875q-0.9375 0 -1.796875 0.3125q-0.859375 0.3125 -1.46875 0.84375l-0.609375 -0.984375q0.75 -0.640625 1.796875 -0.984375q1.046875 -0.34375 2.203125 -0.34375zm-0.46875 8.9375q1.125 0 1.921875 -0.515625q0.796875 -0.515625 1.1875 -1.484375l0 -1.59375l-3.078125 0q-2.515625 0 -2.515625 1.75q0 0.859375 0.65625 1.359375q0.65625 0.484375 1.828125 0.484375zm13.100952 -8.9375q1.375 0 2.484375 0.625q1.125 0.625 1.765625 1.765625q0.640625 1.140625 0.640625 2.59375q0 1.453125 -0.640625 2.59375q-0.640625 1.140625 -1.765625 1.78125q-1.109375 0.625 -2.484375 0.625q-1.234375 0 -2.21875 -0.515625q-0.96875 -0.53125 -1.578125 -1.515625l0 1.9375l-1.265625 0l0 -13.84375l1.328125 0l0 5.890625q0.609375 -0.953125 1.5625 -1.4375q0.96875 -0.5 2.171875 -0.5zm-0.09375 8.8125q1.015625 0 1.859375 -0.46875q0.84375 -0.484375 1.3125 -1.359375q0.484375 -0.875 0.484375 -2.0q0 -1.125 -0.484375 -2.0q-0.46875 -0.875 -1.3125 -1.34375q-0.84375 -0.484375 -1.859375 -0.484375q-1.046875 0 -1.875 0.484375q-0.828125 0.46875 -1.3125 1.34375q-0.46875 0.875 -0.46875 2.0q0 1.125 0.46875 2.0q0.484375 0.875 1.3125 1.359375q0.828125 0.46875 1.875 0.46875zm11.061707 -8.8125q1.921875 0 2.9375 0.96875q1.03125 0.953125 1.03125 2.84375l0 6.078125l-1.265625 0l0 -1.53125q-0.453125 0.765625 -1.328125 1.203125q-0.859375 0.421875 -2.046875 0.421875q-1.6406555 0 -2.6094055 -0.78125q-0.96875 -0.78125 -0.96875 -2.078125q0 -1.25 0.890625 -2.015625q0.90625 -0.765625 2.8906555 -0.765625l3.109375 0l0 -0.59375q0 -1.265625 -0.703125 -1.921875q-0.703125 -0.671875 -2.0625 -0.671875q-0.9375 0 -1.7969055 0.3125q-0.859375 0.3125 -1.46875 0.84375l-0.609375 -0.984375q0.75 -0.640625 1.796875 -0.984375q1.046875 -0.34375 2.2031555 -0.34375zm-0.46875 8.9375q1.125 0 1.921875 -0.515625q0.796875 -0.515625 1.1875 -1.484375l0 -1.59375l-3.078125 0q-2.5156555 0 -2.5156555 1.75q0 0.859375 0.65625 1.359375q0.65625 0.484375 1.8281555 0.484375zm10.679016 1.046875q-1.203125 0 -2.296875 -0.34375q-1.09375 -0.34375 -1.703125 -0.875l0.59375 -1.046875q0.625 0.5 1.546875 0.8125q0.9375 0.296875 1.953125 0.296875q1.328125 0 1.96875 -0.421875q0.65625 -0.421875 0.65625 -1.1875q0 -0.53125 -0.359375 -0.84375q-0.34375 -0.3125 -0.890625 -0.46875q-0.546875 -0.15625 -1.4375 -0.3125q-1.1875 -0.21875 -1.921875 -0.453125q-0.734375 -0.234375 -1.25 -0.78125q-0.5 -0.5625 -0.5 -1.5625q0 -1.234375 1.015625 -2.015625q1.03125 -0.78125 2.859375 -0.78125q0.953125 0 1.90625 0.25q0.953125 0.25 1.5625 0.671875l-0.578125 1.0625q-1.203125 -0.84375 -2.890625 -0.84375q-1.265625 0 -1.90625 0.453125q-0.640625 0.4375 -0.640625 1.171875q0 0.5625 0.359375 0.90625q0.359375 0.328125 0.890625 0.484375q0.546875 0.15625 1.5 0.328125q1.171875 0.21875 1.875 0.453125q0.71875 0.21875 1.21875 0.765625q0.515625 0.53125 0.515625 1.484375q0 1.28125 -1.078125 2.046875q-1.078125 0.75 -2.96875 0.75zm15.029175 -4.59375l-8.203125 0q0.109375 1.53125 1.171875 2.484375q1.0625 0.9375 2.6875 0.9375q0.90625 0 1.671875 -0.328125q0.765625 -0.328125 1.328125 -0.96875l0.75 0.859375q-0.65625 0.78125 -1.640625 1.203125q-0.96875 0.40625 -2.15625 0.40625q-1.5 0 -2.671875 -0.640625q-1.15625 -0.640625 -1.8125 -1.78125q-0.65625 -1.140625 -0.65625 -2.578125q0 -1.4375 0.625 -2.578125q0.625 -1.140625 1.71875 -1.765625q1.09375 -0.640625 2.453125 -0.640625q1.359375 0 2.4375 0.640625q1.078125 0.625 1.6875 1.765625q0.625 1.125 0.625 2.578125l-0.015625 0.40625zm-4.734375 -4.25q-1.421875 0 -2.390625 0.90625q-0.953125 0.90625 -1.078125 2.359375l6.953125 0q-0.125 -1.453125 -1.09375 -2.359375q-0.953125 -0.90625 -2.390625 -0.90625z" fill-rule="nonzero"/><path fill="#434343" d="m498.0635 142.9336q1.28125 0.28125 1.984375 1.109375q0.703125 0.828125 0.703125 2.140625q0 1.671875 -1.25 2.578125q-1.234375 0.90625 -3.65625 0.90625l-6.015625 0l0 -13.0625l5.640625 0q2.171875 0 3.375 0.875q1.203125 0.875 1.203125 2.484375q0 1.078125 -0.53125 1.84375q-0.53125 0.75 -1.453125 1.125zm-6.859375 -5.1875l0 4.734375l4.171875 0q1.578125 0 2.4375 -0.59375q0.859375 -0.609375 0.859375 -1.765625q0 -1.15625 -0.859375 -1.765625q-0.859375 -0.609375 -2.4375 -0.609375l-4.171875 0zm4.609375 10.78125q1.765625 0 2.65625 -0.59375q0.890625 -0.59375 0.890625 -1.859375q0 -2.453125 -3.546875 -2.453125l-4.609375 0l0 4.90625l4.609375 0z" fill-rule="nonzero"/><path fill="#000000" fill-opacity="0.0" d="m234.03937 175.75066l267.2756 0l0 39.590546l-267.2756 0z" fill-rule="evenodd"/><path stroke="#666666" stroke-width="2.0" stroke-linejoin="round" stroke-linecap="butt" d="m234.03937 175.75066l267.2756 0l0 39.590546l-267.2756 0z" fill-rule="evenodd"/><path fill="#434343" d="m304.3403 189.60815q2.5 0 3.90625 1.203125q1.421875 1.1875 1.421875 3.28125q0 2.078125 -1.421875 3.265625q-1.40625 1.1875 -3.90625 1.1875l-3.515625 0l0 4.125l-1.375 0l0 -13.0625l4.890625 0zm-0.03125 7.734375q1.9375 0 2.953125 -0.84375q1.03125 -0.859375 1.03125 -2.40625q0 -1.59375 -1.03125 -2.4375q-1.015625 -0.84375 -2.953125 -0.84375l-3.484375 0l0 6.53125l3.484375 0zm9.090851 -2.5625q0.46875 -0.984375 1.390625 -1.484375q0.921875 -0.515625 2.296875 -0.515625l0 1.296875l-0.328125 -0.03125q-1.546875 0 -2.421875 0.953125q-0.875 0.953125 -0.875 2.671875l0 5.0l-1.328125 0l0 -9.8125l1.265625 0l0 1.921875zm14.519745 3.390625l-8.203125 0q0.109375 1.53125 1.171875 2.484375q1.0625 0.9375 2.6875 0.9375q0.90625 0 1.671875 -0.328125q0.765625 -0.328125 1.328125 -0.96875l0.75 0.859375q-0.65625 0.78125 -1.640625 1.203125q-0.96875 0.40625 -2.15625 0.40625q-1.5 0 -2.671875 -0.640625q-1.15625 -0.640625 -1.8125 -1.78125q-0.65625 -1.140625 -0.65625 -2.578125q0 -1.4375 0.625 -2.578125q0.625 -1.140625 1.71875 -1.765625q1.09375 -0.640625 2.453125 -0.640625q1.359375 0 2.4375 0.640625q1.078125 0.625 1.6875 1.765625q0.625 1.125 0.625 2.578125l-0.015625 0.40625zm-4.734375 -4.25q-1.421875 0 -2.390625 0.90625q-0.953125 0.90625 -1.078125 2.359375l6.953125 0q-0.125 -1.453125 -1.09375 -2.359375q-0.953125 -0.90625 -2.390625 -0.90625zm6.9237976 3.109375l4.875 0l0 1.15625l-4.875 0l0 -1.15625zm12.907928 -4.25q1.375 0 2.484375 0.625q1.125 0.625 1.765625 1.765625q0.640625 1.140625 0.640625 2.59375q0 1.46875 -0.640625 2.609375q-0.640625 1.140625 -1.75 1.765625q-1.109375 0.625 -2.5 0.625q-1.203125 0 -2.171875 -0.484375q-0.953125 -0.5 -1.5625 -1.453125l0 5.46875l-1.328125 0l0 -13.4375l1.265625 0l0 1.9375q0.609375 -0.96875 1.578125 -1.484375q0.984375 -0.53125 2.21875 -0.53125zm-0.09375 8.8125q1.015625 0 1.859375 -0.46875q0.84375 -0.484375 1.3125 -1.359375q0.484375 -0.875 0.484375 -2.0q0 -1.125 -0.484375 -1.984375q-0.46875 -0.875 -1.3125 -1.359375q-0.84375 -0.484375 -1.859375 -0.484375q-1.046875 0 -1.875 0.484375q-0.828125 0.484375 -1.3125 1.359375q-0.46875 0.859375 -0.46875 1.984375q0 1.125 0.46875 2.0q0.484375 0.875 1.3125 1.359375q0.828125 0.46875 1.875 0.46875zm8.945831 -6.8125q0.46875 -0.984375 1.390625 -1.484375q0.921875 -0.515625 2.296875 -0.515625l0 1.296875l-0.328125 -0.03125q-1.546875 0 -2.421875 0.953125q-0.875 0.953125 -0.875 2.671875l0 5.0l-1.328125 0l0 -9.8125l1.265625 0l0 1.921875zm9.988495 7.984375q-1.421875 0 -2.5625 -0.640625q-1.125 -0.640625 -1.78125 -1.78125q-0.65625 -1.140625 -0.65625 -2.578125q0 -1.4375 0.65625 -2.578125q0.65625 -1.140625 1.78125 -1.765625q1.140625 -0.640625 2.5625 -0.640625q1.421875 0 2.546875 0.640625q1.140625 0.625 1.78125 1.765625q0.65625 1.140625 0.65625 2.578125q0 1.4375 -0.65625 2.578125q-0.640625 1.140625 -1.78125 1.78125q-1.125 0.640625 -2.546875 0.640625zm0 -1.171875q1.046875 0 1.875 -0.46875q0.828125 -0.484375 1.296875 -1.359375q0.46875 -0.875 0.46875 -2.0q0 -1.125 -0.46875 -2.0q-0.46875 -0.875 -1.296875 -1.34375q-0.828125 -0.484375 -1.875 -0.484375q-1.046875 0 -1.875 0.484375q-0.828125 0.46875 -1.3125 1.34375q-0.46875 0.875 -0.46875 2.0q0 1.125 0.46875 2.0q0.484375 0.875 1.3125 1.359375q0.828125 0.46875 1.875 0.46875zm11.744324 1.171875q-1.453125 0 -2.59375 -0.625q-1.140625 -0.640625 -1.796875 -1.78125q-0.65625 -1.15625 -0.65625 -2.59375q0 -1.4375 0.65625 -2.578125q0.65625 -1.140625 1.796875 -1.765625q1.140625 -0.640625 2.59375 -0.640625q1.28125 0 2.265625 0.5q1.0 0.484375 1.578125 1.4375l-0.984375 0.671875q-0.484375 -0.71875 -1.234375 -1.078125q-0.734375 -0.375 -1.625 -0.375q-1.0625 0 -1.90625 0.484375q-0.84375 0.46875 -1.328125 1.34375q-0.46875 0.875 -0.46875 2.0q0 1.140625 0.46875 2.015625q0.484375 0.859375 1.328125 1.34375q0.84375 0.46875 1.90625 0.46875q0.890625 0 1.625 -0.359375q0.75 -0.359375 1.234375 -1.078125l0.984375 0.671875q-0.578125 0.953125 -1.59375 1.453125q-1.0 0.484375 -2.25 0.484375zm14.819855 -4.59375l-8.203125 0q0.109375 1.53125 1.171875 2.484375q1.0625 0.9375 2.6875 0.9375q0.90625 0 1.671875 -0.328125q0.765625 -0.328125 1.328125 -0.96875l0.75 0.859375q-0.65625 0.78125 -1.640625 1.203125q-0.96875 0.40625 -2.15625 0.40625q-1.5 0 -2.671875 -0.640625q-1.15625 -0.640625 -1.8125 -1.78125q-0.65625 -1.140625 -0.65625 -2.578125q0 -1.4375 0.625 -2.578125q0.625 -1.140625 1.71875 -1.765625q1.09375 -0.640625 2.453125 -0.640625q1.359375 0 2.4375 0.640625q1.078125 0.625 1.6875 1.765625q0.625 1.125 0.625 2.578125l-0.015625 0.40625zm-4.734375 -4.25q-1.421875 0 -2.390625 0.90625q-0.953125 0.90625 -1.078125 2.359375l6.953125 0q-0.125 -1.453125 -1.09375 -2.359375q-0.953125 -0.90625 -2.390625 -0.90625zm10.096497 8.84375q-1.203125 0 -2.296875 -0.34375q-1.09375 -0.34375 -1.703125 -0.875l0.59375 -1.046875q0.625 0.5 1.546875 0.8125q0.9375 0.296875 1.953125 0.296875q1.328125 0 1.96875 -0.421875q0.65625 -0.421875 0.65625 -1.1875q0 -0.53125 -0.359375 -0.84375q-0.34375 -0.3125 -0.890625 -0.46875q-0.546875 -0.15625 -1.4375 -0.3125q-1.1875 -0.21875 -1.921875 -0.453125q-0.734375 -0.234375 -1.25 -0.78125q-0.5 -0.5625 -0.5 -1.5625q0 -1.234375 1.015625 -2.015625q1.03125 -0.78125 2.859375 -0.78125q0.953125 0 1.90625 0.25q0.953125 0.25 1.5625 0.671875l-0.578125 1.0625q-1.203125 -0.84375 -2.890625 -0.84375q-1.265625 0 -1.90625 0.453125q-0.640625 0.4375 -0.640625 1.171875q0 0.5625 0.359375 0.90625q0.359375 0.328125 0.890625 0.484375q0.546875 0.15625 1.5 0.328125q1.171875 0.21875 1.875 0.453125q0.71875 0.21875 1.21875 0.765625q0.515625 0.53125 0.515625 1.484375q0 1.28125 -1.078125 2.046875q-1.078125 0.75 -2.96875 0.75zm9.122894 0q-1.203125 0 -2.296875 -0.34375q-1.09375 -0.34375 -1.703125 -0.875l0.59375 -1.046875q0.625 0.5 1.546875 0.8125q0.9375 0.296875 1.953125 0.296875q1.328125 0 1.96875 -0.421875q0.65625 -0.421875 0.65625 -1.1875q0 -0.53125 -0.359375 -0.84375q-0.34375 -0.3125 -0.890625 -0.46875q-0.546875 -0.15625 -1.4375 -0.3125q-1.1875 -0.21875 -1.921875 -0.453125q-0.734375 -0.234375 -1.25 -0.78125q-0.5 -0.5625 -0.5 -1.5625q0 -1.234375 1.015625 -2.015625q1.03125 -0.78125 2.859375 -0.78125q0.953125 0 1.90625 0.25q0.953125 0.25 1.5625 0.671875l-0.578125 1.0625q-1.203125 -0.84375 -2.890625 -0.84375q-1.265625 0 -1.90625 0.453125q-0.640625 0.4375 -0.640625 1.171875q0 0.5625 0.359375 0.90625q0.359375 0.328125 0.890625 0.484375q0.546875 0.15625 1.5 0.328125q1.171875 0.21875 1.875 0.453125q0.71875 0.21875 1.21875 0.765625q0.515625 0.53125 0.515625 1.484375q0 1.28125 -1.078125 2.046875q-1.078125 0.75 -2.96875 0.75zm6.4823 -9.90625l1.328125 0l0 9.8125l-1.328125 0l0 -9.8125zm0.671875 -2.140625q-0.40625 0 -0.6875 -0.28125q-0.28125 -0.28125 -0.28125 -0.671875q0 -0.375 0.28125 -0.65625q0.28125 -0.28125 0.6875 -0.28125q0.40625 0 0.6875 0.28125q0.28125 0.265625 0.28125 0.640625q0 0.40625 -0.28125 0.6875q-0.28125 0.28125 -0.6875 0.28125zm9.346649 2.0625q1.84375 0 2.9375 1.078125q1.09375 1.0625 1.09375 3.125l0 5.6875l-1.328125 0l0 -5.5625q0 -1.53125 -0.765625 -2.328125q-0.765625 -0.796875 -2.171875 -0.796875q-1.59375 0 -2.515625 0.9375q-0.921875 0.9375 -0.921875 2.59375l0 5.15625l-1.328125 0l0 -9.8125l1.265625 0l0 1.8125q0.546875 -0.90625 1.5 -1.390625q0.96875 -0.5 2.234375 -0.5zm16.761383 0.078125l0 8.625q0 2.5 -1.234375 3.703125q-1.21875 1.203125 -3.671875 1.203125q-1.359375 0 -2.59375 -0.40625q-1.21875 -0.40625 -1.984375 -1.109375l0.671875 -1.015625q0.703125 0.640625 1.71875 0.984375q1.03125 0.359375 2.140625 0.359375q1.875 0 2.75 -0.875q0.875 -0.859375 0.875 -2.6875l0 -1.25q-0.609375 0.9375 -1.609375 1.421875q-1.0 0.484375 -2.21875 0.484375q-1.375 0 -2.515625 -0.59375q-1.125 -0.609375 -1.765625 -1.703125q-0.640625 -1.09375 -0.640625 -2.484375q0 -1.375 0.640625 -2.453125q0.640625 -1.078125 1.765625 -1.671875q1.125 -0.609375 2.515625 -0.609375q1.25 0 2.25 0.515625q1.015625 0.5 1.625 1.453125l0 -1.890625l1.28125 0zm-5.03125 8.265625q1.078125 0 1.921875 -0.453125q0.859375 -0.46875 1.328125 -1.28125q0.484375 -0.828125 0.484375 -1.875q0 -1.03125 -0.484375 -1.84375q-0.46875 -0.8125 -1.3125 -1.265625q-0.84375 -0.46875 -1.9375 -0.46875q-1.0625 0 -1.90625 0.453125q-0.84375 0.453125 -1.328125 1.28125q-0.46875 0.8125 -0.46875 1.84375q0 1.046875 0.46875 1.875q0.484375 0.8125 1.328125 1.28125q0.84375 0.453125 1.90625 0.453125z" fill-rule="nonzero"/><path fill="#000000" fill-opacity="0.0" d="m472.18634 71.837204l-82.42517 0l0 89.82677" fill-rule="evenodd"/><path stroke="#595959" stroke-width="2.0" stroke-linejoin="round" stroke-linecap="butt" d="m472.18634 71.837204l-82.42517 0l0 82.972595" fill-rule="evenodd"/><path fill="#595959" stroke="#595959" stroke-width="2.0" stroke-linecap="butt" d="m389.76117 154.8098l-2.249176 -2.249176l2.249176 6.17955l2.2491455 -6.17955z" fill-rule="evenodd"/><path fill="#000000" fill-opacity="0.0" d="m263.1706 70.770325l82.4252 0l0 89.82677" fill-rule="evenodd"/><path stroke="#595959" stroke-width="2.0" stroke-linejoin="round" stroke-linecap="butt" d="m263.1706 70.770325l82.4252 0l0 82.972595" fill-rule="evenodd"/><path fill="#595959" stroke="#595959" stroke-width="2.0" stroke-linecap="butt" d="m345.5958 153.74292l-2.249176 -2.2491608l2.249176 6.179535l2.249176 -6.179535z" fill-rule="evenodd"/><path fill="#000000" fill-opacity="0.0" d="m234.03937 314.57086l267.2756 0l0 39.590546l-267.2756 0z" fill-rule="evenodd"/><path stroke="#666666" stroke-width="2.0" stroke-linejoin="round" stroke-linecap="butt" d="m234.03937 314.57086l267.2756 0l0 39.590546l-267.2756 0z" fill-rule="evenodd"/><path fill="#434343" d="m328.60922 328.42834l1.375 0l0 13.0625l-1.375 0l0 -13.0625zm10.352936 3.171875q1.84375 0 2.9375 1.078125q1.09375 1.0625 1.09375 3.125l0 5.6875l-1.328125 0l0 -5.5625q0 -1.53125 -0.765625 -2.328125q-0.765625 -0.796875 -2.171875 -0.796875q-1.59375 0 -2.515625 0.9375q-0.921875 0.9375 -0.921875 2.59375l0 5.15625l-1.328125 0l0 -9.8125l1.265625 0l0 1.8125q0.546875 -0.90625 1.5 -1.390625q0.96875 -0.5 2.234375 -0.5zm16.620728 -3.953125l0 13.84375l-1.265625 0l0 -1.9375q-0.59375 0.984375 -1.578125 1.515625q-0.96875 0.515625 -2.203125 0.515625q-1.390625 0 -2.515625 -0.625q-1.109375 -0.640625 -1.75 -1.78125q-0.625 -1.140625 -0.625 -2.59375q0 -1.453125 0.625 -2.59375q0.640625 -1.140625 1.75 -1.765625q1.125 -0.625 2.515625 -0.625q1.1875 0 2.140625 0.5q0.96875 0.484375 1.59375 1.4375l0 -5.890625l1.3125 0zm-4.9375 12.765625q1.03125 0 1.859375 -0.46875q0.828125 -0.484375 1.296875 -1.359375q0.484375 -0.875 0.484375 -2.0q0 -1.125 -0.484375 -2.0q-0.46875 -0.875 -1.296875 -1.34375q-0.828125 -0.484375 -1.859375 -0.484375q-1.046875 0 -1.875 0.484375q-0.828125 0.46875 -1.3125 1.34375q-0.46875 0.875 -0.46875 2.0q0 1.125 0.46875 2.0q0.484375 0.875 1.3125 1.359375q0.828125 0.46875 1.875 0.46875zm17.180206 -3.421875l-8.203125 0q0.109375 1.53125 1.171875 2.484375q1.0625 0.9375 2.6875 0.9375q0.90625 0 1.671875 -0.328125q0.765625 -0.328125 1.328125 -0.96875l0.75 0.859375q-0.65625 0.78125 -1.640625 1.203125q-0.96875 0.40625 -2.15625 0.40625q-1.5 0 -2.671875 -0.640625q-1.15625 -0.640625 -1.8125 -1.78125q-0.65625 -1.140625 -0.65625 -2.578125q0 -1.4375 0.625 -2.578125q0.625 -1.140625 1.71875 -1.765625q1.09375 -0.640625 2.453125 -0.640625q1.359375 0 2.4375 0.640625q1.078125 0.625 1.6875 1.765625q0.625 1.125 0.625 2.578125l-0.015625 0.40625zm-4.734375 -4.25q-1.421875 0 -2.390625 0.90625q-0.953125 0.90625 -1.078125 2.359375l6.953125 0q-0.125 -1.453125 -1.09375 -2.359375q-0.953125 -0.90625 -2.390625 -0.90625zm13.425873 8.75l-3.109375 -4.109375l-3.140625 4.109375l-1.484375 0l3.875 -5.03125l-3.6875 -4.78125l1.484375 0l2.953125 3.84375l2.9375 -3.84375l1.46875 0l-3.703125 4.78125l3.921875 5.03125l-1.515625 0zm3.7124329 -9.8125l1.328125 0l0 9.8125l-1.328125 0l0 -9.8125zm0.671875 -2.140625q-0.40625 0 -0.6875 -0.28125q-0.28125 -0.28125 -0.28125 -0.671875q0 -0.375 0.28125 -0.65625q0.28125 -0.28125 0.6875 -0.28125q0.40625 0 0.6875 0.28125q0.28125 0.265625 0.28125 0.640625q0 0.40625 -0.28125 0.6875q-0.28125 0.28125 -0.6875 0.28125zm9.346649 2.0625q1.84375 0 2.9375 1.078125q1.09375 1.0625 1.09375 3.125l0 5.6875l-1.328125 0l0 -5.5625q0 -1.53125 -0.765625 -2.328125q-0.765625 -0.796875 -2.171875 -0.796875q-1.59375 0 -2.515625 0.9375q-0.921875 0.9375 -0.921875 2.59375l0 5.15625l-1.328125 0l0 -9.8125l1.265625 0l0 1.8125q0.546875 -0.90625 1.5 -1.390625q0.96875 -0.5 2.234375 -0.5zm16.761383 0.078125l0 8.625q0 2.5 -1.234375 3.703125q-1.21875 1.203125 -3.671875 1.203125q-1.359375 0 -2.59375 -0.40625q-1.21875 -0.40625 -1.984375 -1.109375l0.671875 -1.015625q0.703125 0.640625 1.71875 0.984375q1.03125 0.359375 2.140625 0.359375q1.875 0 2.75 -0.875q0.875 -0.859375 0.875 -2.6875l0 -1.25q-0.609375 0.9375 -1.609375 1.421875q-1.0 0.484375 -2.21875 0.484375q-1.375 0 -2.515625 -0.59375q-1.125 -0.609375 -1.765625 -1.703125q-0.640625 -1.09375 -0.640625 -2.484375q0 -1.375 0.640625 -2.453125q0.640625 -1.078125 1.765625 -1.671875q1.125 -0.609375 2.515625 -0.609375q1.25 0 2.25 0.515625q1.015625 0.5 1.625 1.453125l0 -1.890625l1.28125 0zm-5.03125 8.265625q1.078125 0 1.921875 -0.453125q0.859375 -0.46875 1.328125 -1.28125q0.484375 -0.828125 0.484375 -1.875q0 -1.03125 -0.484375 -1.84375q-0.46875 -0.8125 -1.3125 -1.265625q-0.84375 -0.46875 -1.9375 -0.46875q-1.0625 0 -1.90625 0.453125q-0.84375 0.453125 -1.328125 1.28125q-0.46875 0.8125 -0.46875 1.84375q0 1.046875 0.46875 1.875q0.484375 0.8125 1.328125 1.28125q0.84375 0.453125 1.90625 0.453125z" fill-rule="nonzero"/><path fill="#000000" fill-opacity="0.0" d="m234.03937 414.90424l267.2756 0l0 39.590576l-267.2756 0z" fill-rule="evenodd"/><path stroke="#666666" stroke-width="2.0" stroke-linejoin="round" stroke-linecap="butt" d="m234.03937 414.90424l267.2756 0l0 39.590576l-267.2756 0z" fill-rule="evenodd"/><path fill="#434343" d="m265.71405 441.82425l-2.984375 -4.203125q-0.5 0.0625 -1.046875 0.0625l-3.515625 0l0 4.140625l-1.375 0l0 -13.0625l4.890625 0q2.5 0 3.90625 1.203125q1.421875 1.1875 1.421875 3.28125q0 1.53125 -0.78125 2.59375q-0.765625 1.046875 -2.203125 1.5l3.203125 4.484375l-1.515625 0zm-4.0625 -5.3125q1.9375 0 2.953125 -0.859375q1.03125 -0.859375 1.03125 -2.40625q0 -1.59375 -1.03125 -2.4375q-1.015625 -0.84375 -2.953125 -0.84375l-3.484375 0l0 6.546875l3.484375 0zm16.894714 0.8125l-8.203125 0q0.109375 1.53125 1.171875 2.484375q1.0625 0.9375 2.6875 0.9375q0.90625 0 1.671875 -0.328125q0.765625 -0.328125 1.328125 -0.96875l0.75 0.859375q-0.65625 0.78125 -1.640625 1.203125q-0.96875 0.40625 -2.15625 0.40625q-1.5 0 -2.671875 -0.640625q-1.15625 -0.640625 -1.8125 -1.78125q-0.65625 -1.140625 -0.65625 -2.578125q0 -1.4375 0.625 -2.578125q0.625 -1.140625 1.71875 -1.765625q1.09375 -0.640625 2.453125 -0.640625q1.359375 0 2.4375 0.640625q1.078125 0.625 1.6875 1.765625q0.625 1.125 0.625 2.578125l-0.015625 0.40625zm-4.734375 -4.25q-1.421875 0 -2.390625 0.90625q-0.953125 0.90625 -1.078125 2.359375l6.953125 0q-0.125 -1.453125 -1.09375 -2.359375q-0.953125 -0.90625 -2.390625 -0.90625zm11.518372 8.84375q-1.453125 0 -2.59375 -0.625q-1.140625 -0.640625 -1.796875 -1.78125q-0.65625 -1.15625 -0.65625 -2.59375q0 -1.4375 0.65625 -2.578125q0.65625 -1.140625 1.796875 -1.765625q1.140625 -0.640625 2.59375 -0.640625q1.28125 0 2.265625 0.5q1.0 0.484375 1.578125 1.4375l-0.984375 0.671875q-0.484375 -0.71875 -1.234375 -1.078125q-0.734375 -0.375 -1.625 -0.375q-1.0625 0 -1.90625 0.484375q-0.84375 0.46875 -1.328125 1.34375q-0.46875 0.875 -0.46875 2.0q0 1.140625 0.46875 2.015625q0.484375 0.859375 1.328125 1.34375q0.84375 0.46875 1.90625 0.46875q0.890625 0 1.625 -0.359375q0.75 -0.359375 1.234375 -1.078125l0.984375 0.671875q-0.578125 0.953125 -1.59375 1.453125q-1.0 0.484375 -2.25 0.484375zm10.288574 0q-1.421875 0 -2.5625 -0.640625q-1.125 -0.640625 -1.78125 -1.78125q-0.65625 -1.140625 -0.65625 -2.578125q0 -1.4375 0.65625 -2.578125q0.65625 -1.140625 1.78125 -1.765625q1.140625 -0.640625 2.5625 -0.640625q1.421875 0 2.546875 0.640625q1.140625 0.625 1.78125 1.765625q0.65625 1.140625 0.65625 2.578125q0 1.4375 -0.65625 2.578125q-0.640625 1.140625 -1.78125 1.78125q-1.125 0.640625 -2.546875 0.640625zm0 -1.171875q1.046875 0 1.875 -0.46875q0.828125 -0.484375 1.296875 -1.359375q0.46875 -0.875 0.46875 -2.0q0 -1.125 -0.46875 -2.0q-0.46875 -0.875 -1.296875 -1.34375q-0.828125 -0.484375 -1.875 -0.484375q-1.046875 0 -1.875 0.484375q-0.828125 0.46875 -1.3125 1.34375q-0.46875 0.875 -0.46875 2.0q0 1.125 0.46875 2.0q0.484375 0.875 1.3125 1.359375q0.828125 0.46875 1.875 0.46875zm8.947479 -6.8125q0.46875 -0.984375 1.390625 -1.484375q0.921875 -0.515625 2.296875 -0.515625l0 1.296875l-0.328125 -0.03125q-1.546875 0 -2.421875 0.953125q-0.875 0.953125 -0.875 2.671875l0 5.0l-1.328125 0l0 -9.8125l1.265625 0l0 1.921875zm14.925995 -5.953125l0 13.84375l-1.265625 0l0 -1.9375q-0.59375 0.984375 -1.578125 1.515625q-0.96875 0.515625 -2.203125 0.515625q-1.390625 0 -2.515625 -0.625q-1.109375 -0.640625 -1.75 -1.78125q-0.625 -1.140625 -0.625 -2.59375q0 -1.453125 0.625 -2.59375q0.640625 -1.140625 1.75 -1.765625q1.125 -0.625 2.515625 -0.625q1.1875 0 2.140625 0.5q0.96875 0.484375 1.59375 1.4375l0 -5.890625l1.3125 0zm-4.9375 12.765625q1.03125 0 1.859375 -0.46875q0.828125 -0.484375 1.296875 -1.359375q0.484375 -0.875 0.484375 -2.0q0 -1.125 -0.484375 -2.0q-0.46875 -0.875 -1.296875 -1.34375q-0.828125 -0.484375 -1.859375 -0.484375q-1.046875 0 -1.875 0.484375q-0.828125 0.46875 -1.3125 1.34375q-0.46875 0.875 -0.46875 2.0q0 1.125 0.46875 2.0q0.484375 0.875 1.3125 1.359375q0.828125 0.46875 1.875 0.46875zm7.914551 -4.5625l4.875 0l0 1.15625l-4.875 0l0 -1.15625zm12.907959 -4.25q1.375 0 2.484375 0.625q1.125 0.625 1.765625 1.765625q0.640625 1.140625 0.640625 2.59375q0 1.46875 -0.640625 2.609375q-0.640625 1.140625 -1.75 1.765625q-1.109375 0.625 -2.5 0.625q-1.203125 0 -2.171875 -0.484375q-0.953125 -0.5 -1.5625 -1.453125l0 5.46875l-1.328125 0l0 -13.4375l1.265625 0l0 1.9375q0.609375 -0.96875 1.578125 -1.484375q0.984375 -0.53125 2.21875 -0.53125zm-0.09375 8.8125q1.015625 0 1.859375 -0.46875q0.84375 -0.484375 1.3125 -1.359375q0.484375 -0.875 0.484375 -2.0q0 -1.125 -0.484375 -1.984375q-0.46875 -0.875 -1.3125 -1.359375q-0.84375 -0.484375 -1.859375 -0.484375q-1.046875 0 -1.875 0.484375q-0.828125 0.484375 -1.3125 1.359375q-0.46875 0.859375 -0.46875 1.984375q0 1.125 0.46875 2.0q0.484375 0.875 1.3125 1.359375q0.828125 0.46875 1.875 0.46875zm11.061676 -8.8125q1.921875 0 2.9375 0.96875q1.03125 0.953125 1.03125 2.84375l0 6.078125l-1.265625 0l0 -1.53125q-0.453125 0.765625 -1.328125 1.203125q-0.859375 0.421875 -2.046875 0.421875q-1.640625 0 -2.609375 -0.78125q-0.96875 -0.78125 -0.96875 -2.078125q0 -1.25 0.890625 -2.015625q0.90625 -0.765625 2.890625 -0.765625l3.109375 0l0 -0.59375q0 -1.265625 -0.703125 -1.921875q-0.703125 -0.671875 -2.0625 -0.671875q-0.9375 0 -1.796875 0.3125q-0.859375 0.3125 -1.46875 0.84375l-0.609375 -0.984375q0.75 -0.640625 1.796875 -0.984375q1.046875 -0.34375 2.203125 -0.34375zm-0.46875 8.9375q1.125 0 1.921875 -0.515625q0.796875 -0.515625 1.1875 -1.484375l0 -1.59375l-3.078125 0q-2.515625 0 -2.515625 1.75q0 0.859375 0.65625 1.359375q0.65625 0.484375 1.828125 0.484375zm8.038452 -8.859375l1.328125 0l0 9.8125l-1.328125 0l0 -9.8125zm0.671875 -2.140625q-0.40625 0 -0.6875 -0.28125q-0.28125 -0.28125 -0.28125 -0.671875q0 -0.375 0.28125 -0.65625q0.28125 -0.28125 0.6875 -0.28125q0.40625 0 0.6875 0.28125q0.28125 0.265625 0.28125 0.640625q0 0.40625 -0.28125 0.6875q-0.28125 0.28125 -0.6875 0.28125zm5.612274 4.0625q0.46875 -0.984375 1.390625 -1.484375q0.921875 -0.515625 2.296875 -0.515625l0 1.296875l-0.328125 -0.03125q-1.546875 0 -2.421875 0.953125q-0.875 0.953125 -0.875 2.671875l0 5.0l-1.328125 0l0 -9.8125l1.265625 0l0 1.921875zm15.165985 7.984375q-1.453125 0 -2.59375 -0.625q-1.140625 -0.640625 -1.796875 -1.78125q-0.65625 -1.15625 -0.65625 -2.59375q0 -1.4375 0.65625 -2.578125q0.65625 -1.140625 1.796875 -1.765625q1.140625 -0.640625 2.59375 -0.640625q1.28125 0 2.265625 0.5q1.0 0.484375 1.578125 1.4375l-0.984375 0.671875q-0.484375 -0.71875 -1.234375 -1.078125q-0.734375 -0.375 -1.625 -0.375q-1.0625 0 -1.90625 0.484375q-0.84375 0.46875 -1.328125 1.34375q-0.46875 0.875 -0.46875 2.0q0 1.140625 0.46875 2.015625q0.484375 0.859375 1.328125 1.34375q0.84375 0.46875 1.90625 0.46875q0.890625 0 1.625 -0.359375q0.75 -0.359375 1.234375 -1.078125l0.984375 0.671875q-0.578125 0.953125 -1.59375 1.453125q-1.0 0.484375 -2.25 0.484375zm10.288574 0q-1.421875 0 -2.5625 -0.640625q-1.125 -0.640625 -1.78125 -1.78125q-0.65625 -1.140625 -0.65625 -2.578125q0 -1.4375 0.65625 -2.578125q0.65625 -1.140625 1.78125 -1.765625q1.140625 -0.640625 2.5625 -0.640625q1.421875 0 2.546875 0.640625q1.140625 0.625 1.78125 1.765625q0.65625 1.140625 0.65625 2.578125q0 1.4375 -0.65625 2.578125q-0.640625 1.140625 -1.78125 1.78125q-1.125 0.640625 -2.546875 0.640625zm0 -1.171875q1.046875 0 1.875 -0.46875q0.828125 -0.484375 1.296875 -1.359375q0.46875 -0.875 0.46875 -2.0q0 -1.125 -0.46875 -2.0q-0.46875 -0.875 -1.296875 -1.34375q-0.828125 -0.484375 -1.875 -0.484375q-1.046875 0 -1.875 0.484375q-0.828125 0.46875 -1.3125 1.34375q-0.46875 0.875 -0.46875 2.0q0 1.125 0.46875 2.0q0.484375 0.875 1.3125 1.359375q0.828125 0.46875 1.875 0.46875zm19.91623 -8.8125q1.859375 0 2.90625 1.0625q1.0625 1.0625 1.0625 3.140625l0 5.6875l-1.328125 0l0 -5.5625q0 -1.53125 -0.75 -2.328125q-0.734375 -0.796875 -2.0625 -0.796875q-1.53125 0 -2.421875 0.9375q-0.875 0.9375 -0.875 2.59375l0 5.15625l-1.3125 0l0 -5.5625q0 -1.53125 -0.75 -2.328125q-0.734375 -0.796875 -2.09375 -0.796875q-1.515625 0 -2.40625 0.9375q-0.875 0.9375 -0.875 2.59375l0 5.15625l-1.328125 0l0 -9.8125l1.265625 0l0 1.796875q0.53125 -0.90625 1.453125 -1.390625q0.9375 -0.484375 2.15625 -0.484375q1.234375 0 2.125 0.53125q0.90625 0.515625 1.359375 1.546875q0.546875 -0.96875 1.5625 -1.515625q1.015625 -0.5625 2.3125 -0.5625zm12.622406 0q1.375 0 2.484375 0.625q1.125 0.625 1.765625 1.765625q0.640625 1.140625 0.640625 2.59375q0 1.46875 -0.640625 2.609375q-0.640625 1.140625 -1.75 1.765625q-1.109375 0.625 -2.5 0.625q-1.203125 0 -2.171875 -0.484375q-0.953125 -0.5 -1.5625 -1.453125l0 5.46875l-1.328125 0l0 -13.4375l1.265625 0l0 1.9375q0.609375 -0.96875 1.578125 -1.484375q0.984375 -0.53125 2.21875 -0.53125zm-0.09375 8.8125q1.015625 0 1.859375 -0.46875q0.84375 -0.484375 1.3125 -1.359375q0.484375 -0.875 0.484375 -2.0q0 -1.125 -0.484375 -1.984375q-0.46875 -0.875 -1.3125 -1.359375q-0.84375 -0.484375 -1.859375 -0.484375q-1.046875 0 -1.875 0.484375q-0.828125 0.484375 -1.3125 1.359375q-0.46875 0.859375 -0.46875 1.984375q0 1.125 0.46875 2.0q0.484375 0.875 1.3125 1.359375q0.828125 0.46875 1.875 0.46875zm11.061676 -8.8125q1.921875 0 2.9375 0.96875q1.03125 0.953125 1.03125 2.84375l0 6.078125l-1.265625 0l0 -1.53125q-0.453125 0.765625 -1.328125 1.203125q-0.859375 0.421875 -2.046875 0.421875q-1.640625 0 -2.609375 -0.78125q-0.96875 -0.78125 -0.96875 -2.078125q0 -1.25 0.890625 -2.015625q0.90625 -0.765625 2.890625 -0.765625l3.109375 0l0 -0.59375q0 -1.265625 -0.703125 -1.921875q-0.703125 -0.671875 -2.0625 -0.671875q-0.9375 0 -1.796875 0.3125q-0.859375 0.3125 -1.46875 0.84375l-0.609375 -0.984375q0.75 -0.640625 1.796875 -0.984375q1.046875 -0.34375 2.203125 -0.34375zm-0.46875 8.9375q1.125 0 1.921875 -0.515625q0.796875 -0.515625 1.1875 -1.484375l0 -1.59375l-3.078125 0q-2.515625 0 -2.515625 1.75q0 0.859375 0.65625 1.359375q0.65625 0.484375 1.828125 0.484375zm9.304077 -6.9375q0.46875 -0.984375 1.390625 -1.484375q0.921875 -0.515625 2.296875 -0.515625l0 1.296875l-0.328125 -0.03125q-1.546875 0 -2.421875 0.953125q-0.875 0.953125 -0.875 2.671875l0 5.0l-1.328125 0l0 -9.8125l1.265625 0l0 1.921875zm6.0661926 -1.921875l1.328125 0l0 9.8125l-1.328125 0l0 -9.8125zm0.671875 -2.140625q-0.40625 0 -0.6875 -0.28125q-0.28125 -0.28125 -0.28125 -0.671875q0 -0.375 0.28125 -0.65625q0.28125 -0.28125 0.6875 -0.28125q0.40625 0 0.6875 0.28125q0.28125 0.265625 0.28125 0.640625q0 0.40625 -0.28125 0.6875q-0.28125 0.28125 -0.6875 0.28125zm6.987274 12.046875q-1.203125 0 -2.296875 -0.34375q-1.09375 -0.34375 -1.703125 -0.875l0.59375 -1.046875q0.625 0.5 1.546875 0.8125q0.9375 0.296875 1.953125 0.296875q1.328125 0 1.96875 -0.421875q0.65625 -0.421875 0.65625 -1.1875q0 -0.53125 -0.359375 -0.84375q-0.34375 -0.3125 -0.890625 -0.46875q-0.546875 -0.15625 -1.4375 -0.3125q-1.1875 -0.21875 -1.921875 -0.453125q-0.734375 -0.234375 -1.25 -0.78125q-0.5 -0.5625 -0.5 -1.5625q0 -1.234375 1.015625 -2.015625q1.03125 -0.78125 2.859375 -0.78125q0.953125 0 1.90625 0.25q0.953125 0.25 1.5625 0.671875l-0.578125 1.0625q-1.203125 -0.84375 -2.890625 -0.84375q-1.265625 0 -1.90625 0.453125q-0.640625 0.4375 -0.640625 1.171875q0 0.5625 0.359375 0.90625q0.359375 0.328125 0.890625 0.484375q0.546875 0.15625 1.5 0.328125q1.171875 0.21875 1.875 0.453125q0.71875 0.21875 1.21875 0.765625q0.515625 0.53125 0.515625 1.484375q0 1.28125 -1.078125 2.046875q-1.078125 0.75 -2.96875 0.75zm10.497925 0q-1.421875 0 -2.5625 -0.640625q-1.125 -0.640625 -1.78125 -1.78125q-0.65625 -1.140625 -0.65625 -2.578125q0 -1.4375 0.65625 -2.578125q0.65625 -1.140625 1.78125 -1.765625q1.140625 -0.640625 2.5625 -0.640625q1.421875 0 2.546875 0.640625q1.140625 0.625 1.78125 1.765625q0.65625 1.140625 0.65625 2.578125q0 1.4375 -0.65625 2.578125q-0.640625 1.140625 -1.78125 1.78125q-1.125 0.640625 -2.546875 0.640625zm0 -1.171875q1.046875 0 1.875 -0.46875q0.828125 -0.484375 1.296875 -1.359375q0.46875 -0.875 0.46875 -2.0q0 -1.125 -0.46875 -2.0q-0.46875 -0.875 -1.296875 -1.34375q-0.828125 -0.484375 -1.875 -0.484375q-1.046875 0 -1.875 0.484375q-0.828125 0.46875 -1.3125 1.34375q-0.46875 0.875 -0.46875 2.0q0 1.125 0.46875 2.0q0.484375 0.875 1.3125 1.359375q0.828125 0.46875 1.875 0.46875zm12.681824 -8.8125q1.84375 0 2.9375 1.078125q1.09375 1.0625 1.09375 3.125l0 5.6875l-1.328125 0l0 -5.5625q0 -1.53125 -0.765625 -2.328125q-0.765625 -0.796875 -2.171875 -0.796875q-1.59375 0 -2.515625 0.9375q-0.921875 0.9375 -0.921875 2.59375l0 5.15625l-1.328125 0l0 -9.8125l1.265625 0l0 1.8125q0.546875 -0.90625 1.5 -1.390625q0.96875 -0.5 2.234375 -0.5z" fill-rule="nonzero"/><path fill="#000000" fill-opacity="0.0" d="m234.03937 700.54596l267.2756 0l0 39.590515l-267.2756 0z" fill-rule="evenodd"/><path stroke="#666666" stroke-width="2.0" stroke-linejoin="round" stroke-linecap="butt" d="m234.03937 700.54596l267.2756 0l0 39.590515l-267.2756 0z" fill-rule="evenodd"/><path fill="#434343" d="m329.73752 726.27844l0 1.1875l-9.234375 0l0 -13.0625l8.953125 0l0 1.203125l-7.578125 0l0 4.640625l6.765625 0l0 1.171875l-6.765625 0l0 4.859375l7.859375 0zm11.010071 -8.625l-4.359375 9.8125l-1.375 0l-4.34375 -9.8125l1.390625 0l3.671875 8.359375l3.703125 -8.359375l1.3125 0zm5.0005493 -0.078125q1.921875 0 2.9375 0.96875q1.03125 0.953125 1.03125 2.84375l0 6.078125l-1.265625 0l0 -1.53125q-0.453125 0.765625 -1.328125 1.203125q-0.859375 0.421875 -2.046875 0.421875q-1.640625 0 -2.609375 -0.78125q-0.96875 -0.78125 -0.96875 -2.078125q0 -1.25 0.890625 -2.015625q0.90625 -0.765625 2.890625 -0.765625l3.109375 0l0 -0.59375q0 -1.265625 -0.703125 -1.921875q-0.703125 -0.671875 -2.0625 -0.671875q-0.9375 0 -1.796875 0.3125q-0.859375 0.3125 -1.46875 0.84375l-0.609375 -0.984375q0.75 -0.640625 1.796875 -0.984375q1.046875 -0.34375 2.203125 -0.34375zm-0.46875 8.9375q1.125 0 1.921875 -0.515625q0.796875 -0.515625 1.1875 -1.484375l0 -1.59375l-3.078125 0q-2.515625 0 -2.515625 1.75q0 0.859375 0.65625 1.359375q0.65625 0.484375 1.828125 0.484375zm8.038422 -12.890625l1.328125 0l0 13.84375l-1.328125 0l0 -13.84375zm13.862305 4.03125l0 9.8125l-1.265625 0l0 -1.796875q-0.515625 0.90625 -1.4375 1.40625q-0.90625 0.484375 -2.09375 0.484375q-1.921875 0 -3.03125 -1.0625q-1.109375 -1.078125 -1.109375 -3.15625l0 -5.6875l1.328125 0l0 5.5625q0 1.546875 0.765625 2.359375q0.765625 0.796875 2.1875 0.796875q1.546875 0 2.4375 -0.9375q0.890625 -0.953125 0.890625 -2.640625l0 -5.140625l1.328125 0zm7.149414 -0.078125q1.921875 0 2.9375 0.96875q1.03125 0.953125 1.03125 2.84375l0 6.078125l-1.265625 0l0 -1.53125q-0.453125 0.765625 -1.328125 1.203125q-0.859375 0.421875 -2.046875 0.421875q-1.640625 0 -2.609375 -0.78125q-0.96875 -0.78125 -0.96875 -2.078125q0 -1.25 0.890625 -2.015625q0.90625 -0.765625 2.890625 -0.765625l3.109375 0l0 -0.59375q0 -1.265625 -0.703125 -1.921875q-0.703125 -0.671875 -2.0625 -0.671875q-0.9375 0 -1.796875 0.3125q-0.859375 0.3125 -1.46875 0.84375l-0.609375 -0.984375q0.75 -0.640625 1.796875 -0.984375q1.046875 -0.34375 2.203125 -0.34375zm-0.46875 8.9375q1.125 0 1.921875 -0.515625q0.796875 -0.515625 1.1875 -1.484375l0 -1.59375l-3.078125 0q-2.515625 0 -2.515625 1.75q0 0.859375 0.65625 1.359375q0.65625 0.484375 1.828125 0.484375zm13.210297 0.359375q-0.375 0.328125 -0.921875 0.515625q-0.546875 0.171875 -1.15625 0.171875q-1.375 0 -2.125 -0.75q-0.734375 -0.75 -0.734375 -2.109375l0 -5.921875l-1.765625 0l0 -1.125l1.765625 0l0 -2.140625l1.3125 0l0 2.140625l2.984375 0l0 1.125l-2.984375 0l0 5.859375q0 0.875 0.4375 1.328125q0.4375 0.453125 1.265625 0.453125q0.40625 0 0.78125 -0.125q0.390625 -0.140625 0.671875 -0.375l0.46875 0.953125zm2.4025574 -9.21875l1.328125 0l0 9.8125l-1.328125 0l0 -9.8125zm0.671875 -2.140625q-0.40625 0 -0.6875 -0.28125q-0.28125 -0.28125 -0.28125 -0.671875q0 -0.375 0.28125 -0.65625q0.28125 -0.28125 0.6875 -0.28125q0.40625 0 0.6875 0.28125q0.28125 0.265625 0.28125 0.640625q0 0.40625 -0.28125 0.6875q-0.28125 0.28125 -0.6875 0.28125zm8.362305 12.046875q-1.421875 0 -2.5625 -0.640625q-1.125 -0.640625 -1.78125 -1.78125q-0.65625 -1.140625 -0.65625 -2.578125q0 -1.4375 0.65625 -2.578125q0.65625 -1.140625 1.78125 -1.765625q1.140625 -0.640625 2.5625 -0.640625q1.421875 0 2.546875 0.640625q1.140625 0.625 1.78125 1.765625q0.65625 1.140625 0.65625 2.578125q0 1.4375 -0.65625 2.578125q-0.640625 1.140625 -1.78125 1.78125q-1.125 0.640625 -2.546875 0.640625zm0 -1.171875q1.046875 0 1.875 -0.46875q0.828125 -0.484375 1.296875 -1.359375q0.46875 -0.875 0.46875 -2.0q0 -1.125 -0.46875 -2.0q-0.46875 -0.875 -1.296875 -1.34375q-0.828125 -0.484375 -1.875 -0.484375q-1.046875 0 -1.875 0.484375q-0.828125 0.46875 -1.3125 1.34375q-0.46875 0.875 -0.46875 2.0q0 1.125 0.46875 2.0q0.484375 0.875 1.3125 1.359375q0.828125 0.46875 1.875 0.46875zm12.681824 -8.8125q1.84375 0 2.9375 1.078125q1.09375 1.0625 1.09375 3.125l0 5.6875l-1.328125 0l0 -5.5625q0 -1.53125 -0.765625 -2.328125q-0.765625 -0.796875 -2.171875 -0.796875q-1.59375 0 -2.515625 0.9375q-0.921875 0.9375 -0.921875 2.59375l0 5.15625l-1.328125 0l0 -9.8125l1.265625 0l0 1.8125q0.546875 -0.90625 1.5 -1.390625q0.96875 -0.5 2.234375 -0.5z" fill-rule="nonzero"/><path fill="#000000" fill-opacity="0.0" d="m234.03937 554.4988l267.2756 0l0 39.590515l-267.2756 0z" fill-rule="evenodd"/><path stroke="#666666" stroke-width="2.0" stroke-linejoin="round" stroke-linecap="butt" d="m234.03937 554.4988l267.2756 0l0 39.590515l-267.2756 0z" fill-rule="evenodd"/><path fill="#434343" d="m313.48865 581.52814q-1.9375 0 -3.5 -0.859375q-1.546875 -0.859375 -2.4375 -2.375q-0.890625 -1.515625 -0.890625 -3.40625q0 -1.875 0.890625 -3.390625q0.890625 -1.53125 2.453125 -2.390625q1.5625 -0.859375 3.5 -0.859375q1.453125 0 2.6875 0.484375q1.234375 0.484375 2.09375 1.421875l-0.875 0.875q-1.53125 -1.546875 -3.859375 -1.546875q-1.546875 0 -2.828125 0.71875q-1.265625 0.703125 -1.984375 1.9375q-0.71875 1.21875 -0.71875 2.75q0 1.53125 0.71875 2.765625q0.71875 1.234375 1.984375 1.9375q1.28125 0.703125 2.828125 0.703125q2.34375 0 3.859375 -1.5625l0.875 0.875q-0.859375 0.9375 -2.109375 1.4375q-1.234375 0.484375 -2.6875 0.484375zm7.460724 -13.953125l1.328125 0l0 13.84375l-1.328125 0l0 -13.84375zm8.456024 3.953125q1.921875 0 2.9375 0.96875q1.03125 0.953125 1.03125 2.84375l0 6.078125l-1.265625 0l0 -1.53125q-0.453125 0.765625 -1.328125 1.203125q-0.859375 0.421875 -2.046875 0.421875q-1.640625 0 -2.609375 -0.78125q-0.96875 -0.78125 -0.96875 -2.078125q0 -1.25 0.890625 -2.015625q0.90625 -0.765625 2.890625 -0.765625l3.109375 0l0 -0.59375q0 -1.265625 -0.703125 -1.921875q-0.703125 -0.671875 -2.0625 -0.671875q-0.9375 0 -1.796875 0.3125q-0.859375 0.3125 -1.46875 0.84375l-0.609375 -0.984375q0.75 -0.640625 1.796875 -0.984375q1.046875 -0.34375 2.203125 -0.34375zm-0.46875 8.9375q1.125 0 1.921875 -0.515625q0.796875 -0.515625 1.1875 -1.484375l0 -1.59375l-3.078125 0q-2.515625 0 -2.515625 1.75q0 0.859375 0.65625 1.359375q0.65625 0.484375 1.828125 0.484375zm10.679077 1.046875q-1.203125 0 -2.296875 -0.34375q-1.09375 -0.34375 -1.703125 -0.875l0.59375 -1.046875q0.625 0.5 1.546875 0.8125q0.9375 0.296875 1.953125 0.296875q1.328125 0 1.96875 -0.421875q0.65625 -0.421875 0.65625 -1.1875q0 -0.53125 -0.359375 -0.84375q-0.34375 -0.3125 -0.890625 -0.46875q-0.546875 -0.15625 -1.4375 -0.3125q-1.1875 -0.21875 -1.921875 -0.453125q-0.734375 -0.234375 -1.25 -0.78125q-0.5 -0.5625 -0.5 -1.5625q0 -1.234375 1.015625 -2.015625q1.03125 -0.78125 2.859375 -0.78125q0.953125 0 1.90625 0.25q0.953125 0.25 1.5625 0.671875l-0.578125 1.0625q-1.203125 -0.84375 -2.890625 -0.84375q-1.265625 0 -1.90625 0.453125q-0.640625 0.4375 -0.640625 1.171875q0 0.5625 0.359375 0.90625q0.359375 0.328125 0.890625 0.484375q0.546875 0.15625 1.5 0.328125q1.171875 0.21875 1.875 0.453125q0.71875 0.21875 1.21875 0.765625q0.515625 0.53125 0.515625 1.484375q0 1.28125 -1.078125 2.046875q-1.078125 0.75 -2.96875 0.75zm9.122894 0q-1.203125 0 -2.296875 -0.34375q-1.09375 -0.34375 -1.703125 -0.875l0.59375 -1.046875q0.625 0.5 1.546875 0.8125q0.9375 0.296875 1.953125 0.296875q1.328125 0 1.96875 -0.421875q0.65625 -0.421875 0.65625 -1.1875q0 -0.53125 -0.359375 -0.84375q-0.34375 -0.3125 -0.890625 -0.46875q-0.546875 -0.15625 -1.4375 -0.3125q-1.1875 -0.21875 -1.921875 -0.453125q-0.734375 -0.234375 -1.25 -0.78125q-0.5 -0.5625 -0.5 -1.5625q0 -1.234375 1.015625 -2.015625q1.03125 -0.78125 2.859375 -0.78125q0.953125 0 1.90625 0.25q0.953125 0.25 1.5625 0.671875l-0.578125 1.0625q-1.203125 -0.84375 -2.890625 -0.84375q-1.265625 0 -1.90625 0.453125q-0.640625 0.4375 -0.640625 1.171875q0 0.5625 0.359375 0.90625q0.359375 0.328125 0.890625 0.484375q0.546875 0.15625 1.5 0.328125q1.171875 0.21875 1.875 0.453125q0.71875 0.21875 1.21875 0.765625q0.515625 0.53125 0.515625 1.484375q0 1.28125 -1.078125 2.046875q-1.078125 0.75 -2.96875 0.75zm6.4823 -9.90625l1.328125 0l0 9.8125l-1.328125 0l0 -9.8125zm0.671875 -2.140625q-0.40625 0 -0.6875 -0.28125q-0.28125 -0.28125 -0.28125 -0.671875q0 -0.375 0.28125 -0.65625q0.28125 -0.28125 0.6875 -0.28125q0.40625 0 0.6875 0.28125q0.28125 0.265625 0.28125 0.640625q0 0.40625 -0.28125 0.6875q-0.28125 0.28125 -0.6875 0.28125zm7.596649 -0.859375q-0.859375 0 -1.296875 0.46875q-0.4375 0.453125 -0.4375 1.375l0 1.15625l3.015625 0l0 1.125l-2.984375 0l0 8.6875l-1.3125 0l0 -8.6875l-1.765625 0l0 -1.125l1.765625 0l0 -1.21875q0 -1.34375 0.765625 -2.125q0.78125 -0.78125 2.1875 -0.78125q0.5625 0 1.078125 0.15625q0.53125 0.15625 0.890625 0.453125l-0.453125 1.0q-0.578125 -0.484375 -1.453125 -0.484375zm4.5625 3.0l1.328125 0l0 9.8125l-1.328125 0l0 -9.8125zm0.6875 -2.140625q-0.40625 0 -0.6875 -0.28125q-0.28125 -0.28125 -0.28125 -0.671875q0 -0.375 0.28125 -0.65625q0.28125 -0.28125 0.6875 -0.28125q0.40625 0 0.6875 0.28125q0.28125 0.265625 0.28125 0.640625q0 0.40625 -0.28125 0.6875q-0.28125 0.28125 -0.6875 0.28125zm8.39801 12.046875q-1.453125 0 -2.59375 -0.625q-1.140625 -0.640625 -1.796875 -1.78125q-0.65625 -1.15625 -0.65625 -2.59375q0 -1.4375 0.65625 -2.578125q0.65625 -1.140625 1.796875 -1.765625q1.140625 -0.640625 2.59375 -0.640625q1.28125 0 2.265625 0.5q1.0 0.484375 1.578125 1.4375l-0.984375 0.671875q-0.484375 -0.71875 -1.234375 -1.078125q-0.734375 -0.375 -1.625 -0.375q-1.0625 0 -1.90625 0.484375q-0.84375 0.46875 -1.328125 1.34375q-0.46875 0.875 -0.46875 2.0q0 1.140625 0.46875 2.015625q0.484375 0.859375 1.328125 1.34375q0.84375 0.46875 1.90625 0.46875q0.890625 0 1.625 -0.359375q0.75 -0.359375 1.234375 -1.078125l0.984375 0.671875q-0.578125 0.953125 -1.59375 1.453125q-1.0 0.484375 -2.25 0.484375zm9.878479 -9.984375q1.921875 0 2.9375 0.96875q1.03125 0.953125 1.03125 2.84375l0 6.078125l-1.265625 0l0 -1.53125q-0.453125 0.765625 -1.328125 1.203125q-0.859375 0.421875 -2.046875 0.421875q-1.640625 0 -2.609375 -0.78125q-0.96875 -0.78125 -0.96875 -2.078125q0 -1.25 0.890625 -2.015625q0.90625 -0.765625 2.890625 -0.765625l3.109375 0l0 -0.59375q0 -1.265625 -0.703125 -1.921875q-0.703125 -0.671875 -2.0625 -0.671875q-0.9375 0 -1.796875 0.3125q-0.859375 0.3125 -1.46875 0.84375l-0.609375 -0.984375q0.75 -0.640625 1.796875 -0.984375q1.046875 -0.34375 2.203125 -0.34375zm-0.46875 8.9375q1.125 0 1.921875 -0.515625q0.796875 -0.515625 1.1875 -1.484375l0 -1.59375l-3.078125 0q-2.515625 0 -2.515625 1.75q0 0.859375 0.65625 1.359375q0.65625 0.484375 1.828125 0.484375zm13.210297 0.359375q-0.375 0.328125 -0.921875 0.515625q-0.546875 0.171875 -1.15625 0.171875q-1.375 0 -2.125 -0.75q-0.734375 -0.75 -0.734375 -2.109375l0 -5.921875l-1.765625 0l0 -1.125l1.765625 0l0 -2.140625l1.3125 0l0 2.140625l2.984375 0l0 1.125l-2.984375 0l0 5.859375q0 0.875 0.4375 1.328125q0.4375 0.453125 1.265625 0.453125q0.40625 0 0.78125 -0.125q0.390625 -0.140625 0.671875 -0.375l0.46875 0.953125zm2.4025574 -9.21875l1.328125 0l0 9.8125l-1.328125 0l0 -9.8125zm0.671875 -2.140625q-0.40625 0 -0.6875 -0.28125q-0.28125 -0.28125 -0.28125 -0.671875q0 -0.375 0.28125 -0.65625q0.28125 -0.28125 0.6875 -0.28125q0.40625 0 0.6875 0.28125q0.28125 0.265625 0.28125 0.640625q0 0.40625 -0.28125 0.6875q-0.28125 0.28125 -0.6875 0.28125zm8.362305 12.046875q-1.421875 0 -2.5625 -0.640625q-1.125 -0.640625 -1.78125 -1.78125q-0.65625 -1.140625 -0.65625 -2.578125q0 -1.4375 0.65625 -2.578125q0.65625 -1.140625 1.78125 -1.765625q1.140625 -0.640625 2.5625 -0.640625q1.421875 0 2.546875 0.640625q1.140625 0.625 1.78125 1.765625q0.65625 1.140625 0.65625 2.578125q0 1.4375 -0.65625 2.578125q-0.640625 1.140625 -1.78125 1.78125q-1.125 0.640625 -2.546875 0.640625zm0 -1.171875q1.046875 0 1.875 -0.46875q0.828125 -0.484375 1.296875 -1.359375q0.46875 -0.875 0.46875 -2.0q0 -1.125 -0.46875 -2.0q-0.46875 -0.875 -1.296875 -1.34375q-0.828125 -0.484375 -1.875 -0.484375q-1.046875 0 -1.875 0.484375q-0.828125 0.46875 -1.3125 1.34375q-0.46875 0.875 -0.46875 2.0q0 1.125 0.46875 2.0q0.484375 0.875 1.3125 1.359375q0.828125 0.46875 1.875 0.46875zm12.681824 -8.8125q1.84375 0 2.9375 1.078125q1.09375 1.0625 1.09375 3.125l0 5.6875l-1.328125 0l0 -5.5625q0 -1.53125 -0.765625 -2.328125q-0.765625 -0.796875 -2.171875 -0.796875q-1.59375 0 -2.515625 0.9375q-0.921875 0.9375 -0.921875 2.59375l0 5.15625l-1.328125 0l0 -9.8125l1.265625 0l0 1.8125q0.546875 -0.90625 1.5 -1.390625q0.96875 -0.5 2.234375 -0.5z" fill-rule="nonzero"/><path fill="#000000" fill-opacity="0.0" d="m217.10738 627.28217l134.17323 0l0 39.590515l-134.17323 0z" fill-rule="evenodd"/><path fill="#434343" d="m260.15314 641.13965l0 13.0625l-1.328125 0l0 -10.453125l-5.1250153 8.796875l-0.65625 0l-5.125 -8.734375l0 10.390625l-1.328125 0l0 -13.0625l1.140625 0l5.671875 9.6875l5.6093903 -9.6875l1.140625 0zm7.4104614 3.171875q1.921875 0 2.9375 0.96875q1.03125 0.953125 1.03125 2.84375l0 6.078125l-1.265625 0l0 -1.53125q-0.453125 0.765625 -1.328125 1.203125q-0.859375 0.421875 -2.046875 0.421875q-1.640625 0 -2.609375 -0.78125q-0.96875 -0.78125 -0.96875 -2.078125q0 -1.25 0.890625 -2.015625q0.90625 -0.765625 2.890625 -0.765625l3.109375 0l0 -0.59375q0 -1.265625 -0.703125 -1.921875q-0.703125 -0.671875 -2.0625 -0.671875q-0.9375 0 -1.796875 0.3125q-0.859375 0.3125 -1.46875 0.84375l-0.609375 -0.984375q0.75 -0.640625 1.796875 -0.984375q1.046875 -0.34375 2.203125 -0.34375zm-0.46875 8.9375q1.125 0 1.921875 -0.515625q0.796875 -0.515625 1.1875 -1.484375l0 -1.59375l-3.078125 0q-2.515625 0 -2.515625 1.75q0 0.859375 0.65625 1.359375q0.65625 0.484375 1.828125 0.484375zm13.210327 0.359375q-0.375 0.328125 -0.921875 0.515625q-0.546875 0.171875 -1.15625 0.171875q-1.375 0 -2.125 -0.75q-0.734375 -0.75 -0.734375 -2.109375l0 -5.921875l-1.765625 0l0 -1.125l1.765625 0l0 -2.140625l1.3125 0l0 2.140625l2.984375 0l0 1.125l-2.984375 0l0 5.859375q0 0.875 0.4375 1.328125q0.4375 0.453125 1.265625 0.453125q0.40625 0 0.78125 -0.125q0.390625 -0.140625 0.671875 -0.375l0.46875 0.953125zm6.110382 0.6875q-1.453125 0 -2.59375 -0.625q-1.140625 -0.640625 -1.796875 -1.78125q-0.65625 -1.15625 -0.65625 -2.59375q0 -1.4375 0.65625 -2.578125q0.65625 -1.140625 1.796875 -1.765625q1.140625 -0.640625 2.59375 -0.640625q1.28125 0 2.265625 0.5q1.0 0.484375 1.578125 1.4375l-0.984375 0.671875q-0.484375 -0.71875 -1.234375 -1.078125q-0.734375 -0.375 -1.625 -0.375q-1.0625 0 -1.90625 0.484375q-0.84375 0.46875 -1.328125 1.34375q-0.46875 0.875 -0.46875 2.0q0 1.140625 0.46875 2.015625q0.484375 0.859375 1.328125 1.34375q0.84375 0.46875 1.90625 0.46875q0.890625 0 1.625 -0.359375q0.75 -0.359375 1.234375 -1.078125l0.984375 0.671875q-0.578125 0.953125 -1.59375 1.453125q-1.0 0.484375 -2.25 0.484375zm11.291626 -9.984375q1.84375 0 2.9375 1.078125q1.09375 1.0625 1.09375 3.125l0 5.6875l-1.328125 0l0 -5.5625q0 -1.53125 -0.765625 -2.328125q-0.765625 -0.796875 -2.171875 -0.796875q-1.59375 0 -2.515625 0.9375q-0.921875 0.9375 -0.921875 2.59375l0 5.15625l-1.328125 0l0 -13.84375l1.328125 0l0 5.75q0.546875 -0.859375 1.484375 -1.328125q0.953125 -0.46875 2.1875 -0.46875zm16.214508 5.390625l-8.203125 0q0.109375 1.53125 1.171875 2.484375q1.0625 0.9375 2.6875 0.9375q0.90625 0 1.671875 -0.328125q0.765625 -0.328125 1.328125 -0.96875l0.75 0.859375q-0.65625 0.78125 -1.640625 1.203125q-0.96875 0.40625 -2.15625 0.40625q-1.5 0 -2.671875 -0.640625q-1.15625 -0.640625 -1.8125 -1.78125q-0.65625 -1.140625 -0.65625 -2.578125q0 -1.4375 0.625 -2.578125q0.625 -1.140625 1.71875 -1.765625q1.09375 -0.640625 2.453125 -0.640625q1.359375 0 2.4375 0.640625q1.078125 0.625 1.6875 1.765625q0.625 1.125 0.625 2.578125l-0.015625 0.40625zm-4.734375 -4.25q-1.421875 0 -2.390625 0.90625q-0.953125 0.90625 -1.078125 2.359375l6.953125 0q-0.125 -1.453125 -1.09375 -2.359375q-0.953125 -0.90625 -2.390625 -0.90625zm10.096497 8.84375q-1.203125 0 -2.296875 -0.34375q-1.09375 -0.34375 -1.703125 -0.875l0.59375 -1.046875q0.625 0.5 1.546875 0.8125q0.9375 0.296875 1.953125 0.296875q1.328125 0 1.96875 -0.421875q0.65625 -0.421875 0.65625 -1.1875q0 -0.53125 -0.359375 -0.84375q-0.34375 -0.3125 -0.890625 -0.46875q-0.546875 -0.15625 -1.4375 -0.3125q-1.1875 -0.21875 -1.921875 -0.453125q-0.734375 -0.234375 -1.25 -0.78125q-0.5 -0.5625 -0.5 -1.5625q0 -1.234375 1.015625 -2.015625q1.03125 -0.78125 2.859375 -0.78125q0.953125 0 1.90625 0.25q0.953125 0.25 1.5625 0.671875l-0.578125 1.0625q-1.203125 -0.84375 -2.890625 -0.84375q-1.265625 0 -1.90625 0.453125q-0.640625 0.4375 -0.640625 1.171875q0 0.5625 0.359375 0.90625q0.359375 0.328125 0.890625 0.484375q0.546875 0.15625 1.5 0.328125q1.171875 0.21875 1.875 0.453125q0.71875 0.21875 1.21875 0.765625q0.515625 0.53125 0.515625 1.484375q0 1.28125 -1.078125 2.046875q-1.078125 0.75 -2.96875 0.75z" fill-rule="nonzero"/><path fill="#000000" fill-opacity="0.0" d="m383.2782 627.2808l156.8819 0l0 39.590576l-156.8819 0z" fill-rule="evenodd"/><path fill="#434343" d="m410.73788 641.13837l0 13.0625l-1.140625 0l-8.40625 -10.59375l0 10.59375l-1.375 0l0 -13.0625l1.140625 0l8.40625 10.59375l0 -10.59375l1.375 0zm7.9800415 13.15625q-1.421875 0 -2.5625 -0.640625q-1.125 -0.640625 -1.78125 -1.78125q-0.65625 -1.140625 -0.65625 -2.578125q0 -1.4375 0.65625 -2.578125q0.65625 -1.140625 1.78125 -1.765625q1.140625 -0.640625 2.5625 -0.640625q1.421875 0 2.546875 0.640625q1.140625 0.625 1.78125 1.765625q0.65625 1.140625 0.65625 2.578125q0 1.4375 -0.65625 2.578125q-0.640625 1.140625 -1.78125 1.78125q-1.125 0.640625 -2.546875 0.640625zm0 -1.171875q1.046875 0 1.875 -0.46875q0.828125 -0.484375 1.296875 -1.359375q0.46875 -0.875 0.46875 -2.0q0 -1.125 -0.46875 -2.0q-0.46875 -0.875 -1.296875 -1.34375q-0.828125 -0.484375 -1.875 -0.484375q-1.046875 0 -1.875 0.484375q-0.828125 0.46875 -1.3125 1.34375q-0.46875 0.875 -0.46875 2.0q0 1.125 0.46875 2.0q0.484375 0.875 1.3125 1.359375q0.828125 0.46875 1.875 0.46875zm12.681854 -8.8125q1.84375 0 2.9375 1.078125q1.09375 1.0625 1.09375 3.125l0 5.6875l-1.328125 0l0 -5.5625q0 -1.53125 -0.765625 -2.328125q-0.765625 -0.796875 -2.171875 -0.796875q-1.59375 0 -2.515625 0.9375q-0.921875 0.9375 -0.921875 2.59375l0 5.15625l-1.328125 0l0 -9.8125l1.265625 0l0 1.8125q0.546875 -0.90625 1.5 -1.390625q0.96875 -0.5 2.234375 -0.5zm6.9115295 4.25l4.875 0l0 1.15625l-4.875 0l0 -1.15625zm20.079803 -4.25q1.859375 0 2.90625 1.0625q1.0625 1.0625 1.0625 3.140625l0 5.6875l-1.328125 0l0 -5.5625q0 -1.53125 -0.75 -2.328125q-0.734375 -0.796875 -2.0625 -0.796875q-1.53125 0 -2.421875 0.9375q-0.875 0.9375 -0.875 2.59375l0 5.15625l-1.3125 0l0 -5.5625q0 -1.53125 -0.75 -2.328125q-0.734375 -0.796875 -2.09375 -0.796875q-1.515625 0 -2.40625 0.9375q-0.875 0.9375 -0.875 2.59375l0 5.15625l-1.328125 0l0 -9.8125l1.265625 0l0 1.796875q0.53125 -0.90625 1.453125 -1.390625q0.9375 -0.484375 2.15625 -0.484375q1.234375 0 2.125 0.53125q0.90625 0.515625 1.359375 1.546875q0.546875 -0.96875 1.5625 -1.515625q1.015625 -0.5625 2.3125 -0.5625zm10.997406 0q1.921875 0 2.9375 0.96875q1.03125 0.953125 1.03125 2.84375l0 6.078125l-1.265625 0l0 -1.53125q-0.453125 0.765625 -1.328125 1.203125q-0.859375 0.421875 -2.046875 0.421875q-1.640625 0 -2.609375 -0.78125q-0.96875 -0.78125 -0.96875 -2.078125q0 -1.25 0.890625 -2.015625q0.90625 -0.765625 2.890625 -0.765625l3.109375 0l0 -0.59375q0 -1.265625 -0.703125 -1.921875q-0.703125 -0.671875 -2.0625 -0.671875q-0.9375 0 -1.796875 0.3125q-0.859375 0.3125 -1.46875 0.84375l-0.609375 -0.984375q0.75 -0.640625 1.796875 -0.984375q1.046875 -0.34375 2.203125 -0.34375zm-0.46875 8.9375q1.125 0 1.921875 -0.515625q0.796875 -0.515625 1.1875 -1.484375l0 -1.59375l-3.078125 0q-2.515625 0 -2.515625 1.75q0 0.859375 0.65625 1.359375q0.65625 0.484375 1.828125 0.484375zm13.210327 0.359375q-0.375 0.328125 -0.921875 0.515625q-0.546875 0.171875 -1.15625 0.171875q-1.375 0 -2.125 -0.75q-0.734375 -0.75 -0.734375 -2.109375l0 -5.921875l-1.765625 0l0 -1.125l1.765625 0l0 -2.140625l1.3125 0l0 2.140625l2.984375 0l0 1.125l-2.984375 0l0 5.859375q0 0.875 0.4375 1.328125q0.4375 0.453125 1.265625 0.453125q0.40625 0 0.78125 -0.125q0.390625 -0.140625 0.671875 -0.375l0.46875 0.953125zm6.110382 0.6875q-1.453125 0 -2.59375 -0.625q-1.140625 -0.640625 -1.796875 -1.78125q-0.65625 -1.15625 -0.65625 -2.59375q0 -1.4375 0.65625 -2.578125q0.65625 -1.140625 1.796875 -1.765625q1.140625 -0.640625 2.59375 -0.640625q1.28125 0 2.265625 0.5q1.0 0.484375 1.578125 1.4375l-0.984375 0.671875q-0.484375 -0.71875 -1.234375 -1.078125q-0.734375 -0.375 -1.625 -0.375q-1.0625 0 -1.90625 0.484375q-0.84375 0.46875 -1.328125 1.34375q-0.46875 0.875 -0.46875 2.0q0 1.140625 0.46875 2.015625q0.484375 0.859375 1.328125 1.34375q0.84375 0.46875 1.90625 0.46875q0.890625 0 1.625 -0.359375q0.75 -0.359375 1.234375 -1.078125l0.984375 0.671875q-0.578125 0.953125 -1.59375 1.453125q-1.0 0.484375 -2.25 0.484375zm11.291626 -9.984375q1.84375 0 2.9375 1.078125q1.09375 1.0625 1.09375 3.125l0 5.6875l-1.328125 0l0 -5.5625q0 -1.53125 -0.765625 -2.328125q-0.765625 -0.796875 -2.171875 -0.796875q-1.59375 0 -2.515625 0.9375q-0.921875 0.9375 -0.921875 2.59375l0 5.15625l-1.328125 0l0 -13.84375l1.328125 0l0 5.75q0.546875 -0.859375 1.484375 -1.328125q0.953125 -0.46875 2.1875 -0.46875zm16.214478 5.390625l-8.2030945 0q0.109375 1.53125 1.171875 2.484375q1.0625 0.9375 2.6875 0.9375q0.9062195 0 1.6718445 -0.328125q0.765625 -0.328125 1.328125 -0.96875l0.75 0.859375q-0.65625 0.78125 -1.640625 1.203125q-0.96875 0.40625 -2.1562195 0.40625q-1.5 0 -2.671875 -0.640625q-1.15625 -0.640625 -1.8125 -1.78125q-0.65625 -1.140625 -0.65625 -2.578125q0 -1.4375 0.625 -2.578125q0.625 -1.140625 1.71875 -1.765625q1.09375 -0.640625 2.453125 -0.640625q1.3593445 0 2.4374695 0.640625q1.078125 0.625 1.6875 1.765625q0.625 1.125 0.625 2.578125l-0.015625 0.40625zm-4.7343445 -4.25q-1.421875 0 -2.390625 0.90625q-0.953125 0.90625 -1.078125 2.359375l6.9530945 0q-0.125 -1.453125 -1.09375 -2.359375q-0.953125 -0.90625 -2.3905945 -0.90625zm10.096466 8.84375q-1.203125 0 -2.296875 -0.34375q-1.09375 -0.34375 -1.703125 -0.875l0.59375 -1.046875q0.625 0.5 1.546875 0.8125q0.9375 0.296875 1.953125 0.296875q1.328125 0 1.96875 -0.421875q0.65625 -0.421875 0.65625 -1.1875q0 -0.53125 -0.359375 -0.84375q-0.34375 -0.3125 -0.890625 -0.46875q-0.546875 -0.15625 -1.4375 -0.3125q-1.1875 -0.21875 -1.921875 -0.453125q-0.734375 -0.234375 -1.25 -0.78125q-0.5 -0.5625 -0.5 -1.5625q0 -1.234375 1.015625 -2.015625q1.03125 -0.78125 2.859375 -0.78125q0.953125 0 1.90625 0.25q0.953125 0.25 1.5625 0.671875l-0.578125 1.0625q-1.203125 -0.84375 -2.890625 -0.84375q-1.265625 0 -1.90625 0.453125q-0.640625 0.4375 -0.640625 1.171875q0 0.5625 0.359375 0.90625q0.359375 0.328125 0.890625 0.484375q0.546875 0.15625 1.5 0.328125q1.171875 0.21875 1.875 0.453125q0.71875 0.21875 1.21875 0.765625q0.515625 0.53125 0.515625 1.484375q0 1.28125 -1.078125 2.046875q-1.078125 0.75 -2.96875 0.75z" fill-rule="nonzero"/><path fill="#000000" fill-opacity="0.0" d="m346.3832 226.53159l-0.78741455 76.787384" fill-rule="evenodd"/><path stroke="#595959" stroke-width="2.0" stroke-linejoin="round" stroke-linecap="butt" d="m346.3832 226.53159l-0.71710205 69.93356" fill-rule="evenodd"/><path fill="#595959" stroke="#595959" stroke-width="2.0" stroke-linecap="butt" d="m345.66608 296.46518l-2.2259827 -2.2721252l2.1856995 6.2022705l2.3124084 -6.1561584z" fill-rule="evenodd"/><path fill="#000000" fill-opacity="0.0" d="m390.54855 226.56046l-0.78738403 76.787384" fill-rule="evenodd"/><path stroke="#595959" stroke-width="2.0" stroke-linejoin="round" stroke-linecap="butt" d="m390.54855 226.56046l-0.71710205 69.93356" fill-rule="evenodd"/><path fill="#595959" stroke="#595959" stroke-width="2.0" stroke-linecap="butt" d="m389.83142 296.49405l-2.2259827 -2.2721252l2.1856995 6.2022705l2.3124084 -6.156128z" fill-rule="evenodd"/><path fill="#000000" fill-opacity="0.0" d="m368.0643 467.46463l-0.78738403 76.787384" fill-rule="evenodd"/><path stroke="#595959" stroke-width="2.0" stroke-linejoin="round" stroke-linecap="butt" d="m368.0643 467.4646l-0.71710205 69.93359" fill-rule="evenodd"/><path fill="#595959" stroke="#595959" stroke-width="2.0" stroke-linecap="butt" d="m367.3472 537.3982l-2.2260132 -2.2720947l2.1856995 6.2022705l2.3124084 -6.156189z" fill-rule="evenodd"/><path fill="#000000" fill-opacity="0.0" d="m345.98294 365.32816l-0.78741455 38.393707" fill-rule="evenodd"/><path stroke="#595959" stroke-width="2.0" stroke-linejoin="round" stroke-linecap="butt" d="m345.98294 365.32816l-0.6468506 31.540985" fill-rule="evenodd"/><path fill="#595959" stroke="#595959" stroke-width="2.0" stroke-linecap="butt" d="m345.3361 396.86914l-2.2025757 -2.2948303l2.1219788 6.224365l2.3753967 -6.1321106z" fill-rule="evenodd"/><path fill="#000000" fill-opacity="0.0" d="m390.1483 365.3426l-0.78738403 38.393707" fill-rule="evenodd"/><path stroke="#595959" stroke-width="2.0" stroke-linejoin="round" stroke-linecap="butt" d="m390.1483 365.3426l-0.6468506 31.540985" fill-rule="evenodd"/><path fill="#595959" stroke="#595959" stroke-width="2.0" stroke-linecap="butt" d="m389.50143 396.88358l-2.2025757 -2.2948303l2.1219788 6.224365l2.3753967 -6.1321106z" fill-rule="evenodd"/><path fill="#000000" fill-opacity="0.0" d="m389.60397 607.10236l52.629944 28.787415" fill-rule="evenodd"/><path stroke="#595959" stroke-width="2.0" stroke-linejoin="round" stroke-linecap="butt" d="m389.60397 607.10236l46.616486 25.49823" fill-rule="evenodd"/><path fill="#595959" stroke="#595959" stroke-width="2.0" stroke-linecap="butt" d="m436.2205 632.6006l-3.0526123 0.8939209l6.5008545 0.9921875l-4.342163 -4.9387207z" fill-rule="evenodd"/><path fill="#000000" fill-opacity="0.0" d="m352.0003 607.10236l-52.629913 28.787415" fill-rule="evenodd"/><path stroke="#595959" stroke-width="2.0" stroke-linejoin="round" stroke-linecap="butt" d="m352.00027 607.10236l-46.616486 25.49823" fill-rule="evenodd"/><path fill="#595959" stroke="#595959" stroke-width="2.0" stroke-linecap="butt" d="m305.3838 632.6006l0.8939209 -3.0526123l-4.342163 4.9387207l6.500824 -0.9921875z" fill-rule="evenodd"/><path fill="#000000" fill-opacity="0.0" d="m390.29297 690.01587l52.629913 -28.787415" fill-rule="evenodd"/><path stroke="#595959" stroke-width="2.0" stroke-linejoin="round" stroke-linecap="butt" d="m396.3064 686.7266l46.616516 -25.498169" fill-rule="evenodd"/><path fill="#595959" stroke="#595959" stroke-width="2.0" stroke-linecap="butt" d="m396.30637 686.7266l0.8939514 -3.0526123l-4.3421936 4.9387207l6.5008545 -0.9921875z" fill-rule="evenodd"/><path fill="#000000" fill-opacity="0.0" d="m352.6893 690.01587l-52.629913 -28.787415" fill-rule="evenodd"/><path stroke="#595959" stroke-width="2.0" stroke-linejoin="round" stroke-linecap="butt" d="m346.6759 686.7266l-46.616516 -25.498169" fill-rule="evenodd"/><path fill="#595959" stroke="#595959" stroke-width="2.0" stroke-linecap="butt" d="m346.6759 686.7266l-3.0525818 0.8939209l6.500824 0.9921875l-4.342163 -4.9387207z" fill-rule="evenodd"/></g></svg>